<svg width="152" height="138" viewBox="0 0 152 138" fill="none" xmlns="http://www.w3.org/2000/svg">
<path d="M63.0866 26.4366C62.8689 26.0144 62.5698 25.6394 62.2065 25.3334C61.8432 25.0273 61.4229 24.7962 60.9698 24.6534C60.5168 24.5105 60.0399 24.4588 59.5668 24.5011C59.0936 24.5435 58.6336 24.679 58.2131 24.9C57.7926 25.121 57.42 25.4231 57.1168 25.7888C56.8136 26.1544 56.5858 26.5765 56.4465 27.0307C56.3072 27.4848 56.2592 27.9621 56.3052 28.4349C56.3512 28.9077 56.4904 29.3667 56.7147 29.7854L58.3763 32.9474C54.6571 52.8843 38.7426 67.6917 24.8911 74.971L5.7748 85.0168C3.23979 86.349 1.33781 88.6336 0.487261 91.3681C-0.363286 94.1027 -0.0927277 97.063 1.23942 99.5981L7.93676 112.342C9.26965 114.877 11.5542 116.778 14.2884 117.629C17.0225 118.479 19.9825 118.209 22.5177 116.878L22.8632 116.696C26.7765 119.124 36.7876 125.978 41.6721 135.274C42.1201 136.115 42.8815 136.745 43.7911 137.028C44.7007 137.311 45.6852 137.224 46.5311 136.786L55.0278 132.321C55.8684 131.873 56.4985 131.111 56.7815 130.202C57.0645 129.292 56.9775 128.308 56.5395 127.462L44.865 105.247C58.6487 98.9223 78.0934 95.4631 95.2355 103.092L96.8972 106.254C99.0346 110.431 105.495 106.996 103.269 102.905L63.0866 26.4366ZM14.309 108.994L7.61132 96.2495C7.17244 95.4038 7.08505 94.419 7.36817 93.5091C7.65129 92.5993 8.28202 91.8379 9.12332 91.3905L25.0537 83.0186L35.0995 102.135L19.1692 110.504C18.3242 110.948 17.3379 111.037 16.4267 110.754C15.5156 110.471 14.754 109.838 14.309 108.994ZM46.2177 128.82C41.5641 121.676 34.8353 116.168 30.1389 112.873L38.4472 108.507L48.4933 127.623L46.2177 128.82ZM65.1085 92.0447C56.9429 93.1061 48.9869 95.4066 41.5149 98.8668L31.383 79.5861C38.4709 75.3952 44.8783 70.1479 50.3841 64.0253C56.3463 57.3384 60.6781 50.0838 63.3262 42.3664L90.2869 93.6701C82.4287 91.4745 73.9969 90.9274 65.1085 92.0444V92.0447Z" fill="#62D7A4"/>
<path d="M116.375 5.22583C97.1896 5.22583 81.5817 18.8185 81.5817 35.5263C81.5817 44.3145 85.8108 52.4512 93.2757 58.1987L91.2871 66.1534C90.4662 69.0232 93.773 71.6674 96.3885 70.2454L107.306 64.7865C110.279 65.4801 113.322 65.829 116.375 65.8264C135.56 65.8264 151.168 52.2341 151.168 35.5263C151.168 18.8185 135.56 5.22583 116.375 5.22583ZM116.375 58.6279C113.492 58.632 110.622 58.2518 107.84 57.4971C106.986 57.264 106.075 57.3542 105.283 57.7503L100.169 60.3073L100.854 57.5667C101.035 56.8434 100.987 56.0817 100.716 55.387C100.445 54.6923 99.9654 54.0988 99.3429 53.6885C92.6302 49.2644 88.7802 42.6444 88.7802 35.5263C88.7802 22.7879 101.159 12.4244 116.375 12.4244C131.59 12.4244 143.969 22.7879 143.969 35.5263C143.969 48.2647 131.59 58.6279 116.375 58.6279Z" fill="#62D7A4"/>
<path d="M123.428 23.0768L104.232 42.2729C100.88 45.5278 106.069 50.7129 109.322 47.3629L128.518 28.1667C129.184 27.4899 129.555 26.5773 129.551 25.6278C129.547 24.6783 129.168 23.7688 128.497 23.0974C127.826 22.426 126.916 22.0471 125.967 22.0432C125.017 22.0394 124.105 22.4109 123.428 23.0768Z" fill="#62D7A4"/>
<path d="M124.773 47.2173C126.761 47.2173 128.372 45.6059 128.372 43.6181C128.372 41.6302 126.761 40.0188 124.773 40.0188C122.785 40.0188 121.174 41.6302 121.174 43.6181C121.174 45.6059 122.785 47.2173 124.773 47.2173Z" fill="#62D7A4"/>
<path d="M107.976 30.4208C109.964 30.4208 111.576 28.8094 111.576 26.8216C111.576 24.8337 109.964 23.2223 107.976 23.2223C105.989 23.2223 104.377 24.8337 104.377 26.8216C104.377 28.8094 105.989 30.4208 107.976 30.4208Z" fill="#62D7A4"/>
<path d="M125.973 98.807H133.171C133.489 98.807 133.795 98.9334 134.02 99.1584C134.245 99.3834 134.371 99.6885 134.371 100.007C134.371 100.961 134.75 101.877 135.425 102.552C136.1 103.227 137.016 103.606 137.97 103.606C138.925 103.606 139.84 103.227 140.515 102.552C141.19 101.877 141.57 100.961 141.57 100.007C141.567 97.7801 140.681 95.6455 139.107 94.071C137.533 92.4966 135.398 91.611 133.171 91.6084H131.972V85.6096C131.972 84.6551 131.592 83.7396 130.917 83.0646C130.242 82.3896 129.327 82.0104 128.372 82.0104C127.418 82.0104 126.502 82.3896 125.827 83.0646C125.152 83.7396 124.773 84.6551 124.773 85.6096V91.6768C122.033 91.9866 119.515 93.333 117.736 95.4397C115.957 97.5464 115.052 100.254 115.205 103.007C115.359 105.76 116.559 108.35 118.562 110.246C120.564 112.142 123.215 113.201 125.973 113.204H130.772C131.726 113.204 132.642 113.583 133.317 114.258C133.992 114.933 134.371 115.849 134.371 116.803C134.371 117.758 133.992 118.673 133.317 119.348C132.642 120.023 131.726 120.403 130.772 120.403H123.573C123.255 120.403 122.95 120.276 122.725 120.051C122.5 119.826 122.373 119.521 122.373 119.203C122.373 118.248 121.994 117.333 121.319 116.658C120.644 115.983 119.729 115.604 118.774 115.604C117.82 115.604 116.904 115.983 116.229 116.658C115.554 117.333 115.175 118.248 115.175 119.203C115.177 121.429 116.063 123.564 117.638 125.139C119.212 126.713 121.347 127.599 123.573 127.601H124.773V133.6C124.773 134.555 125.152 135.47 125.827 136.145C126.502 136.82 127.418 137.199 128.372 137.199C129.327 137.199 130.242 136.82 130.917 136.145C131.592 135.47 131.972 134.555 131.972 133.6V127.533C134.711 127.223 137.229 125.877 139.008 123.77C140.787 121.663 141.693 118.956 141.539 116.202C141.386 113.449 140.185 110.859 138.183 108.963C136.181 107.067 133.529 106.009 130.772 106.006H125.973C125.018 106.006 124.103 105.626 123.428 104.951C122.753 104.276 122.373 103.361 122.373 102.406C122.373 101.452 122.753 100.536 123.428 99.8612C124.103 99.1862 125.018 98.807 125.973 98.807Z" fill="#62D7A4"/>
<path d="M25.1932 38.819H17.9946C17.6764 38.819 17.3713 38.6926 17.1463 38.4676C16.9213 38.2426 16.7949 37.9375 16.7949 37.6193C16.7949 36.6647 16.4156 35.7492 15.7407 35.0742C15.0657 34.3992 14.1502 34.02 13.1956 34.02C12.241 34.02 11.3255 34.3992 10.6505 35.0742C9.97552 35.7492 9.59631 36.6647 9.59631 37.6193C9.59885 39.8459 10.4845 41.9805 12.0589 43.555C13.6334 45.1294 15.768 46.015 17.9946 46.0176H19.1944V52.0164C19.1944 52.9709 19.5736 53.8864 20.2486 54.5614C20.9236 55.2364 21.8391 55.6156 22.7936 55.6156C23.7482 55.6156 24.6637 55.2364 25.3387 54.5614C26.0137 53.8864 26.3929 52.9709 26.3929 52.0164V45.9492C29.1329 45.6394 31.6505 44.2931 33.4295 42.1863C35.2085 40.0796 36.1142 37.372 35.9607 34.6189C35.8073 31.8658 34.6064 29.2756 32.6043 27.3796C30.6022 25.4836 27.9506 24.4254 25.1932 24.422H20.3941C19.4395 24.422 18.524 24.0427 17.8491 23.3678C17.1741 22.6928 16.7949 21.7773 16.7949 20.8227C16.7949 19.8681 17.1741 18.9526 17.8491 18.2776C18.524 17.6026 19.4395 17.2234 20.3941 17.2234H27.5927C27.9109 17.2234 28.216 17.3498 28.441 17.5748C28.666 17.7998 28.7924 18.105 28.7924 18.4232C28.7924 19.3778 29.1716 20.2932 29.8466 20.9682C30.5216 21.6432 31.4371 22.0224 32.3917 22.0224C33.3463 22.0224 34.2618 21.6432 34.9368 20.9682C35.6118 20.2932 35.991 19.3778 35.991 18.4232C35.9884 16.1966 35.1028 14.0619 33.5284 12.4875C31.9539 10.913 29.8193 10.0274 27.5927 10.0249H26.3929V4.02609C26.3929 3.0715 26.0137 2.15601 25.3387 1.48102C24.6637 0.806027 23.7482 0.426819 22.7936 0.426819C21.8391 0.426819 20.9236 0.806027 20.2486 1.48102C19.5736 2.15601 19.1944 3.0715 19.1944 4.02609V10.0933C16.4544 10.4031 13.9368 11.7494 12.1578 13.8561C10.3788 15.9629 9.4731 18.6704 9.62654 21.4235C9.77998 24.1767 10.9809 26.7668 12.983 28.6628C14.9851 30.5588 17.6367 31.617 20.3941 31.6205H25.1932C26.1477 31.6205 27.0632 31.9997 27.7382 32.6747C28.4132 33.3497 28.7924 34.2652 28.7924 35.2198C28.7924 36.1744 28.4132 37.0898 27.7382 37.7648C27.0632 38.4398 26.1477 38.819 25.1932 38.819Z" fill="#62D7A4"/>
</svg>
