<svg width="614" height="475" viewBox="0 0 614 475" fill="none" xmlns="http://www.w3.org/2000/svg">
<path d="M611.995 470.981H2.06994C1.0046 470.981 0.0715329 471.788 0.00360856 472.856C-0.0714657 474.025 0.850875 474.996 2.00201 474.996H611.995C613.099 474.996 613.996 474.097 613.996 472.989C614 471.881 613.103 470.981 611.995 470.981Z" fill="#4951EC"/>
<path d="M213.983 88.2482C232.139 88.1646 246.79 73.3368 246.707 55.1295C246.623 36.9221 231.837 22.23 213.681 22.3136C195.524 22.3973 180.873 37.225 180.956 55.4324C181.04 73.6397 195.826 88.3319 213.983 88.2482Z" fill="#92B5F9"/>
<path d="M226.206 84.8921C209.922 91.7357 191.125 84.0173 184.3 67.6914C177.475 51.3619 185.172 32.5122 201.453 25.6685C217.737 18.8248 236.534 26.5432 243.359 42.8691C250.187 59.1986 242.49 78.0519 226.206 84.8921Z" fill="#92B5F9"/>
<path d="M236.125 69.2235C243.728 56.9116 239.938 40.7502 227.661 33.1259C215.383 25.5016 199.267 29.3016 191.664 41.6134C184.061 53.9253 187.85 70.0867 200.128 77.711C212.405 85.3354 228.522 81.5353 236.125 69.2235Z" fill="white"/>
<path d="M223.417 78.2169C210.812 83.5154 196.262 77.5393 190.978 64.9023C185.694 52.2617 191.654 37.671 204.256 32.3724C216.861 27.0738 231.411 33.0464 236.695 45.6869C241.979 58.3275 236.019 72.9183 223.417 78.2169Z" fill="white"/>
<path d="M193.545 62.3856L189.452 64.1064C188.779 64.3896 188.461 65.1675 188.744 65.8415C189.026 66.5155 189.802 66.8345 190.474 66.5513L194.567 64.8305C195.239 64.5473 195.558 63.7694 195.275 63.0954C194.993 62.4214 194.217 62.1024 193.545 62.3856Z" fill="#92B5F9"/>
<path d="M221.616 73.9075C220.943 74.1907 220.625 74.9687 220.908 75.6426L222.624 79.7474C222.906 80.4214 223.682 80.7404 224.354 80.4572C225.026 80.174 225.344 79.3961 225.062 78.7221L223.346 74.6173C223.063 73.9434 222.288 73.6279 221.616 73.9075Z" fill="#92B5F9"/>
<path d="M237.199 44.0377L233.105 45.7585C232.433 46.0417 232.115 46.8196 232.398 47.4936C232.68 48.1676 233.456 48.4866 234.128 48.2034L238.221 46.4826C238.893 46.1994 239.212 45.4215 238.929 44.7475C238.647 44.0735 237.871 43.7545 237.199 44.0377Z" fill="#92B5F9"/>
<path d="M203.319 30.1317C202.647 30.4149 202.329 31.1928 202.611 31.8668L204.327 35.9716C204.609 36.6455 205.385 36.9646 206.057 36.6814C206.729 36.3982 207.048 35.6202 206.765 34.9463L205.049 30.8415C204.767 30.1675 203.991 29.8485 203.319 30.1317Z" fill="#92B5F9"/>
<path d="M212.517 18.9682L212.882 13.7629C212.91 13.3363 213.282 13.0136 213.708 13.0423L219.66 13.4617C220.085 13.4904 220.407 13.8633 220.379 14.2899L220.014 19.4952C219.985 19.9218 219.614 20.2445 219.188 20.2158L213.236 19.7964C212.807 19.7677 212.485 19.3948 212.517 18.9682Z" fill="#92B5F9"/>
<path d="M189.291 28.8698L185.333 25.482C185.008 25.2024 184.522 25.2418 184.243 25.5681L180.368 30.1174C180.089 30.4436 180.128 30.9312 180.453 31.2108L184.411 34.5986C184.736 34.8782 185.222 34.8388 185.501 34.5125L189.376 29.9632C189.652 29.6406 189.612 29.1494 189.291 28.8698Z" fill="#92B5F9"/>
<path d="M195.668 20.3411C195.286 20.5025 194.843 20.3196 194.682 19.936L193.234 16.473C193.073 16.0894 193.255 15.6448 193.638 15.4835L200.688 12.5223C201.07 12.361 201.514 12.5438 201.671 12.9274L203.119 16.3905C203.28 16.7741 203.097 17.2186 202.715 17.38L195.668 20.3411Z" fill="#92B5F9"/>
<path d="M197.52 21.5923C194.085 21.854 190.714 19.9218 189.309 16.5555C187.553 12.3539 189.527 7.51779 193.717 5.75757C197.906 3.99736 202.729 5.97626 204.484 10.1778C205.889 13.5405 204.906 17.3083 202.307 19.5848L203.094 21.4633C206.669 18.71 208.106 13.7843 206.283 9.42499C204.113 4.23397 198.139 1.78185 192.962 3.95792C187.786 6.13399 185.34 12.1245 187.51 17.3155C189.334 21.6748 193.842 24.1018 198.307 23.478L197.52 21.5923Z" fill="#92B5F9"/>
<path d="M200.87 24.274C201.692 23.9299 202.522 23.618 203.355 23.3419L201.267 18.3445L197.374 19.9792L199.436 24.9157C199.905 24.6899 200.384 24.4748 200.87 24.274Z" fill="#92B5F9"/>
<path d="M216.056 54.3123C216.571 55.5455 215.992 56.9616 214.766 57.4778C213.536 57.9941 212.124 57.4133 211.609 56.1837C211.094 54.9504 211.674 53.5344 212.9 53.0181C214.13 52.4983 215.542 53.0791 216.056 54.3123Z" fill="#92B5F9"/>
<path d="M216.4 35.4768L214.677 55.3447C214.634 55.8465 214.194 56.2158 213.693 56.1728C213.193 56.1298 212.825 55.6888 212.868 55.1869C212.878 55.1116 212.725 55.9864 216.4 35.4768Z" fill="#92B5F9"/>
<path d="M231.257 65.0779L213.486 56.1263C213.039 55.9005 212.857 55.3555 213.082 54.9038C213.307 54.4557 213.851 54.2729 214.301 54.4987C214.369 54.5382 213.615 54.0721 231.257 65.0779Z" fill="#92B5F9"/>
<path d="M214.741 54.8643C214.952 55.3662 214.716 55.947 214.212 56.1585C213.711 56.37 213.132 56.1334 212.921 55.6279C212.71 55.126 212.946 54.5453 213.45 54.3338C213.954 54.1222 214.534 54.3624 214.741 54.8643Z" fill="#92B5F9"/>
<path d="M458.361 198.012C458.118 197.736 457.739 197.621 457.385 197.718C455.647 198.187 452.501 197.485 450.946 196.94L449.252 188.529C450.474 187.422 453.102 185.55 454.886 185.31C455.251 185.26 455.554 185.009 455.672 184.661L457.817 178.269C457.935 177.922 457.842 177.534 457.581 177.276C456.305 176.004 455.34 172.921 455.032 171.297L461.449 165.622C463.015 166.131 465.947 167.475 467.048 168.902C467.273 169.192 467.641 169.332 468.002 169.26L474.595 167.927C474.956 167.855 475.242 167.583 475.335 167.228C475.796 165.485 477.977 163.105 479.224 162.026L487.332 164.761C487.679 166.378 487.979 169.594 487.296 171.264C487.157 171.605 487.221 171.996 487.465 172.272L491.912 177.33C492.155 177.606 492.534 177.721 492.888 177.624C494.625 177.154 497.771 177.857 499.326 178.402L501.021 186.812C499.798 187.92 497.171 189.791 495.387 190.032C495.022 190.082 494.718 190.333 494.6 190.68L492.455 197.072C492.337 197.42 492.43 197.807 492.688 198.065C493.964 199.338 494.929 202.421 495.236 204.045L488.819 209.72C487.254 209.211 484.322 207.867 483.221 206.44C482.996 206.15 482.628 206.01 482.266 206.081L475.674 207.415C475.313 207.487 475.027 207.759 474.934 208.114C474.473 209.856 472.292 212.24 471.045 213.316L462.937 210.581C462.59 208.964 462.29 205.748 462.972 204.077C463.112 203.737 463.047 203.346 462.804 203.07L458.361 198.012ZM476.808 195.947C481.369 195.022 484.319 190.566 483.4 185.991C482.477 181.417 478.034 178.459 473.472 179.381C468.91 180.306 465.961 184.762 466.88 189.336C467.802 193.911 472.246 196.872 476.808 195.947ZM477.876 201.26C485.362 199.743 490.206 192.43 488.694 184.919C487.182 177.413 479.889 172.555 472.4 174.071C464.914 175.588 460.07 182.901 461.582 190.412C463.098 197.918 470.39 202.776 477.876 201.26Z" fill="#62D7A4"/>
<path d="M512.829 228.118C512.904 227.835 513.133 227.62 513.415 227.562L518.635 226.505C518.921 226.447 519.214 226.559 519.389 226.788C520.261 227.917 522.581 228.986 523.822 229.387L528.902 224.892C528.659 223.608 527.894 221.163 526.886 220.156C526.678 219.952 526.607 219.643 526.7 219.367L528.398 214.305C528.491 214.029 528.73 213.828 529.02 213.789C530.432 213.599 532.513 212.115 533.481 211.24L532.141 204.583C530.907 204.153 528.419 203.593 527.043 203.966C526.764 204.042 526.464 203.952 526.271 203.733L522.749 199.729C522.556 199.51 522.506 199.202 522.617 198.933C523.157 197.61 522.917 195.065 522.646 193.785L516.225 191.62C515.235 192.473 513.512 194.359 513.143 195.739C513.068 196.022 512.84 196.237 512.557 196.294L507.338 197.352C507.052 197.409 506.759 197.298 506.583 197.069C505.711 195.94 503.391 194.871 502.15 194.47L497.063 198.965C497.306 200.249 498.071 202.69 499.08 203.701C499.287 203.905 499.358 204.21 499.265 204.486L497.567 209.548C497.474 209.824 497.231 210.025 496.945 210.064C495.533 210.254 493.453 211.738 492.484 212.613L493.824 219.27C495.054 219.701 497.546 220.26 498.922 219.887C499.201 219.812 499.501 219.901 499.694 220.12L503.216 224.124C503.409 224.343 503.459 224.651 503.348 224.92C502.808 226.243 503.048 228.788 503.319 230.068L509.74 232.234C510.738 231.384 512.461 229.498 512.829 228.118ZM514.627 220.088C510.133 220.998 505.758 218.084 504.85 213.577C503.942 209.071 506.848 204.683 511.342 203.773C515.835 202.862 520.211 205.777 521.119 210.283C522.027 214.789 519.121 219.177 514.627 220.088Z" fill="#62D7A4"/>
<path d="M145.762 122.276L139.96 120.082L134.869 123.631C134.29 124.036 133.5 123.599 133.532 122.889L133.818 116.68L128.881 112.926C128.32 112.5 128.491 111.61 129.171 111.42L135.148 109.775L137.186 103.903C137.418 103.232 138.315 103.121 138.701 103.713L142.108 108.907L148.307 109.036C149.012 109.051 149.394 109.872 148.954 110.424L145.083 115.278L146.874 121.229C147.081 121.91 146.423 122.527 145.762 122.276Z" fill="#92B5F9"/>
<path d="M154.635 85.1213L151.482 76.6321L143.417 79.0483L139.942 70.8244L131.948 72.1831L128.345 66.4543L125.453 68.2827L130.272 75.9437L137.847 74.6567L141.461 83.2141L149.394 80.8372L152.251 88.527L154.635 85.1213Z" fill="#7C9AF2"/>
<path d="M493.603 124.204L485.681 119.852L481.158 126.972L473.165 123.032L468.006 129.302L461.542 127.334L460.549 130.614L469.193 133.249L474.08 127.305L482.395 131.407L486.842 124.402L494.025 128.345L493.603 124.204Z" fill="#BED1F9"/>
<path d="M284.767 17.2221L281.375 25.6181L288.954 29.2962L285.979 37.7173L292.79 42.1232L291.592 48.7913L294.956 49.4007L296.561 40.4849L290.105 36.3048L293.201 27.5468L285.747 23.9296L288.818 16.3223L284.767 17.2221Z" fill="#92B5F9"/>
<path d="M484.529 233.693L482.863 230.402L479.113 230.527L477.505 226.706L473.551 228.079L471.541 223.834L467.745 224.648L465.149 220.884L466.569 219.898L468.513 222.712L472.517 221.855L474.448 225.931L478.47 224.537L480.243 228.756L483.907 228.631L485.452 231.682L487.84 231.097L488.251 232.779L484.529 233.693Z" fill="#62D7A4"/>
<path d="M415.182 81.2388L413.427 76.0083L421.506 72.2513L419.883 64.2855L425.474 60.4819L423.555 57.6426L416.079 62.7332L417.617 70.2796L409.208 74.1908L411.85 82.0597L415.182 81.2388Z" fill="#62D7A4"/>
<path d="M479.923 69.1754C488.835 82.8305 476.716 101.784 460.847 98.9628C457.998 98.4573 455.024 99.1134 452.475 100.691L443.702 106.115C441.285 107.61 438.246 106.961 436.72 104.627L433.345 99.4539C431.822 97.1165 432.322 93.8793 434.496 92.0116C442.432 85.1965 445.807 83.2642 446.873 77.5498C449.99 60.8332 471.011 55.5202 479.923 69.1754Z" fill="#BED1F9"/>
<path d="M458.993 76.6894C458.818 75.9473 458.65 75.112 458.579 74.2839C458.175 69.5087 461.853 67.8597 463.791 69.0893C465.031 69.878 465.535 71.7063 464.82 73.4379C464.181 74.9937 462.79 76.1194 461.381 77.3526C462.139 80.0019 463.326 82.4433 464.913 84.6229C469.253 82.0023 472.353 83.4363 472.553 85.806C472.682 87.3296 471.709 88.8998 470.237 89.5415C469.357 89.9251 467.087 90.4521 464.399 87.4694C457.074 92.6497 447.518 100.304 447.486 100.325L446.274 98.633C446.302 98.6114 455.808 91.0042 463.105 85.8346C461.596 83.7374 460.423 81.4144 459.612 78.9121C451.264 86.2182 443.907 91.9972 443.65 92.2051L442.441 90.5094C442.974 90.0757 450.102 84.5082 458.993 76.6894ZM462.515 70.8746C461.868 70.6273 460.148 71.3407 460.842 75.0654C462.772 73.3626 463.362 72.6169 462.515 70.8746ZM466.247 86.2613C467.312 87.3726 468.928 88.38 470.011 87.1754C471.406 85.6339 469.414 84.4795 466.247 86.2613Z" fill="white"/>
<path d="M452.694 100.565C452.619 100.608 452.544 100.644 452.469 100.691L443.696 106.115C441.279 107.61 438.241 106.961 436.714 104.627L433.339 99.454C431.816 97.1166 432.317 93.8794 434.491 92.0116C438.019 88.9788 440.647 86.9138 442.57 85.0532L452.694 100.565Z" fill="#92B5F9"/>
<path d="M58.8189 356.908C58.8189 356.908 58.5329 355.51 58.4757 355.037C58.4078 354.484 58.3291 352.81 58.3291 352.81C58.3291 352.81 58.3255 346.963 58.7581 346.999C59.1907 347.035 59.7484 348.035 59.8735 348.397C59.9986 348.756 60.1809 349.168 60.3096 349.526C60.4348 349.889 60.8066 350.093 61.2677 349.964C61.7253 349.838 61.5358 348.29 61.3607 347.77C60.8209 346.142 58.5114 342.088 58.2862 341.65C58.0181 341.13 59.8771 330.989 60.2381 327.465C60.9996 321.714 62.0721 315.839 62.1579 315.229L72.3716 292.587L65.5541 285.603C65.5541 285.603 53.864 310.572 53.4243 311.884C53.2133 312.512 52.4769 325.98 52.4805 325.98C52.5341 332.634 52.5984 338.499 52.577 339.625C52.577 339.625 51.6153 342.98 50.8753 345.078C50.1353 347.178 50.2997 349.408 50.1818 350.028C50.1639 350.118 49.6455 352.24 50.003 354.893C50.3105 357.18 51.0719 354.857 51.0719 354.857C51.0719 354.857 51.2685 350.505 51.6082 350.577C51.8727 350.631 51.6225 353.004 51.9371 355.538C52.0193 356.191 52.0979 356.833 52.1802 357.424C52.3911 358.973 53.4064 359.274 53.4457 357.618C53.46 357.033 53.46 356.058 53.3599 355.366C53.2527 354.617 53.3992 353.893 53.4064 353.248C53.4207 351.968 53.4135 351.036 53.4672 351.064C53.5351 351.1 53.7174 350.849 53.8246 351.538C53.9533 352.366 53.8354 354.19 54.1214 355.395C54.2822 356.076 54.5325 357.524 54.5325 357.524C54.5325 357.524 55.1939 359.822 55.3333 359.815C56.0912 359.783 56.0912 357.998 55.748 357.101C55.8266 356.417 55.5192 354.904 55.5192 354.904C55.5192 354.904 55.5907 351.695 56.0483 351.692C56.4236 351.688 57.7357 359.389 58.4935 359.303C59.1084 359.245 58.8189 356.908 58.8189 356.908Z" fill="#FB9390"/>
<path d="M68.2175 305.708C68.2175 305.708 63.9776 304.973 61.7289 304.134C58.7295 303.015 56.7597 302.037 56.7597 302.037C56.7597 302.037 60.0522 287.908 64.1599 279.329C65.858 275.784 67.574 274.074 69.9692 273.662C69.9835 273.658 75.017 276.985 74.8168 284.997C74.7668 286.872 68.2175 305.708 68.2175 305.708Z" fill="#E8605D"/>
<path d="M81.2518 353.187L86.7465 403.878C86.7465 403.878 84.0617 414.597 84.3835 417.644C84.7088 420.692 90.3573 460.639 90.3573 460.639L90.1177 462.879L90.1106 469.497H111.078C111.078 469.497 106.627 467.439 100.403 463.374C99.9417 463.073 98.8835 462.116 98.6226 460.201C96.9602 447.887 100.249 406.814 100.249 406.814L102.841 353.352L81.2518 353.187Z" fill="#FB9390"/>
<path d="M64.403 363.848C63.2197 364.157 61.3965 407.743 60.4169 409.675C54.2001 421.921 52.7236 459.155 52.7236 459.155L50.9182 464.457L48.9842 470.96C48.9842 470.96 55.1939 472.663 58.4471 470.809L58.086 464.399L57.7572 458.538L73.4405 412.149L82.024 364.834L64.403 363.848Z" fill="#FB9390"/>
<path d="M95.5946 279.419C93.0635 275.848 82.6246 265.509 81.4663 265.531C78.0844 265.592 66.9877 265.595 64.8213 266.735L64.8356 269.17C64.8928 280.057 66.2799 290.902 69.0111 301.438C70.9166 308.783 72.7184 316.627 72.4967 319.445L72.5504 319.499C78.971 325.898 89.0953 325.396 94.969 318.384C94.969 318.384 94.9439 310.576 95.8484 303.453C97.2605 292.296 101.879 288.285 95.5946 279.419Z" fill="#FA7167"/>
<path d="M78.0665 254.446C78.0665 254.446 78.3596 261.709 77.7269 264.462C77.0941 267.216 76.254 267.424 81.6772 268.263C83.8079 268.592 85.8635 269.083 85.8635 269.083C85.8635 269.083 85.3058 265.04 85.2236 263.333C85.0841 260.523 85.8492 251.84 85.8492 251.84L78.0665 254.446Z" fill="#FB9390"/>
<path d="M82.1956 258.06C83.311 258.683 84.3549 259.049 85.3165 259.203C85.5024 255.773 85.8492 251.84 85.8492 251.84L78.424 254.328C79.2856 255.812 80.5118 257.12 82.1956 258.06Z" fill="#EF7F7F"/>
<path d="M79.786 234.105C79.786 234.105 76.6865 235.202 74.9741 238.626C73.2617 242.049 72.6254 251.671 79.3678 255.436C82.7068 257.3 86.557 257.651 88.3695 256.013C90.2178 254.342 89.9926 250.625 89.8102 247.538C89.4456 241.422 88.105 232.158 79.786 234.105Z" fill="#FB9390"/>
<path d="M74.8168 246.186C75.1993 247.792 74.6881 249.345 73.6764 249.649C72.6647 249.954 71.5314 248.9 71.1489 247.294C70.7664 245.688 71.2776 244.136 72.2893 243.831C73.3046 243.523 74.4343 244.58 74.8168 246.186Z" fill="#F7A491"/>
<path d="M58.0825 464.374C55.2189 465.69 52.1552 464.876 50.9147 464.457L48.927 470.985C48.927 470.985 55.1796 472.842 58.4328 470.985L58.0825 464.374Z" fill="#FA7167"/>
<path d="M60.803 389.735C60.8067 389.743 60.8067 389.743 60.8105 389.735H60.803Z" fill="#F47458"/>
<path d="M89.8961 471.139H111.693C112.497 471.064 112.694 470.383 112.415 469.963C111.839 469.099 109.297 468.468 106.437 467.092C101.425 467.637 90.9042 464.066 90.1142 462.865C89.6566 465.271 89.4456 471.035 89.8961 471.139Z" fill="#FA7167"/>
<path d="M133.672 295.931C134.093 295.343 135.509 292.465 135.509 292.465C135.509 292.465 136.975 287.532 136.671 287.596C136.492 287.636 135.888 288.331 135.173 289.826C134.737 290.737 134.258 292.336 133.804 293.124C133.01 294.508 132.124 295.085 132.342 294.551C132.503 294.16 133.046 293.841 133.525 293.013C134.69 290.995 135.72 287.693 135.27 287.761C134.876 287.819 133.75 290.095 132.503 291.866C131.959 292.637 130.415 293.605 129.446 294.218C129.457 293.78 129.578 293.343 129.643 293.135C129.768 292.748 131.498 290.446 130.819 290.156C130.143 289.866 126.021 294.852 126.021 294.852L124.33 297.745L124.18 297.856H124.173C124.173 297.856 103.617 305.937 102.927 305.718C101.311 305.206 95.784 289.149 95.784 289.149L84.2834 291.228C84.1189 291.138 96.3739 315.129 98.6583 316.305C100.664 317.337 122.031 306.174 126.046 303.786C131.573 301.653 133.732 299.115 134.63 297.817C135.112 297.118 136.964 294.085 136.964 294.085C136.964 294.085 137.361 289.88 137.061 289.844C136.045 289.719 135.766 293.684 135.766 293.684C135.766 293.684 134.394 295.555 134.158 295.799C133.568 296.397 133.672 295.931 133.672 295.931Z" fill="#FB9390"/>
<path d="M76.8617 275.153C75.2923 281.825 83.6649 296.699 83.6649 296.699C83.6649 296.699 95.591 290.891 97.6895 288.385C97.6895 288.385 89.4635 274.769 88.9523 273.88C87.8512 271.959 83.9866 267.99 81.3841 268.718C79.7253 269.184 76.8617 275.153 76.8617 275.153Z" fill="#E8605D"/>
<path d="M78.7565 258.701C79.6466 252.582 89.7709 240.11 85.8599 234.897C82.6961 230.681 77.1799 231.943 73.6657 233.155C57.7285 238.654 58.6437 258.745 53.6137 261.885C44.494 267.581 38.8813 271.127 38.2235 283.961C37.4442 299.179 50.3355 306.955 65.8365 303.23C74.1698 301.23 76.3791 298.495 79.7217 290.6C81.2303 287.044 84.2691 275.945 83.4361 270.521C82.6961 265.667 78.0415 263.631 78.7565 258.701Z" fill="#0B0754"/>
<path d="M84.816 247.484C84.816 249.295 84.1583 250.764 83.3503 250.764C82.5424 250.764 81.8846 249.295 81.8846 247.484C81.8846 245.674 82.5388 244.204 83.3503 244.204C84.1618 244.204 84.816 245.67 84.816 247.484Z" fill="#FB9390"/>
<path d="M104.797 386.158L105.544 356.083C105.672 347.583 103.996 339.162 100.632 331.422L94.9654 318.38C92.6738 319.133 90.511 319.775 88.1014 320.055C82.8605 320.66 77.7054 320.058 72.4931 319.442C72.4788 319.646 72.4538 319.825 72.4216 319.972C71.4743 324.4 66.2084 334.276 63.9883 347.77C61.468 363.088 60.5277 386 60.8423 387.8C84.9304 388.897 90.6718 389.768 104.797 386.158Z" fill="#92B5F9"/>
<path d="M404.822 235.611L422.961 253.801C422.961 253.801 457.506 267.348 461.367 275.669C465.228 283.99 457.892 283.602 449.788 282.441C441.683 281.279 418.718 266.957 418.718 266.957L397.683 242.573L404.822 235.611Z" fill="#4951EC"/>
<path d="M457.917 272.019L453.431 270.424L444.747 274.489C444.747 274.489 440.26 277.537 438.09 285.087C435.92 292.633 438.09 337.775 441.708 345.031C445.326 352.287 457.917 272.019 457.917 272.019Z" fill="#BED1F9"/>
<path d="M486.406 453.046C486.406 453.046 489.595 455.107 489.859 456.053C490.12 457.003 492.462 467.26 491.586 468.447C490.71 469.637 487.504 469.06 488.751 469.927C489.691 470.58 495.755 471.081 499.633 470.031C500.767 469.726 500.248 460.137 500.413 458.678C500.656 456.555 502.118 451.741 501.231 450.486C500.799 449.873 498.311 448.797 496.069 447.923C493.713 447.001 491.1 444.399 491.1 444.399L486.406 453.046Z" fill="#FB9390"/>
<path d="M495.865 447.844C495.865 447.844 493.981 466.041 491.776 467.385C491.189 467.744 488.09 468.009 487.804 469.493C487.797 469.529 487.732 471.017 488.673 471.053L500.434 471.017C500.434 471.017 500.556 462.069 500.481 458.566C500.481 458.566 502.104 449.618 501.575 448.951C501.049 448.278 495.865 447.844 495.865 447.844Z" fill="#0B0754"/>
<path d="M532.434 453.046C532.434 453.046 535.623 455.107 535.887 456.053C536.148 457.003 538.49 467.26 537.614 468.447C536.738 469.637 533.531 469.06 534.779 469.927C535.719 470.58 541.782 471.081 545.661 470.031C546.791 469.726 546.276 460.137 546.44 458.678C546.684 456.555 548.146 451.741 547.259 450.486C546.827 449.873 544.338 448.797 542.097 447.923C539.741 447.001 537.128 444.399 537.128 444.399L532.434 453.046Z" fill="#FB9390"/>
<path d="M474.666 334.785C474.666 334.785 485.419 356.198 487.625 361.948L504.013 403.641L540.156 446.274C540.156 446.274 537.51 453.124 533.51 454.96C533.51 454.96 489.935 419.677 486.349 414.12C480.886 405.649 456.008 353.749 456.008 353.749L451.382 343.765L474.666 334.785Z" fill="#E8605D"/>
<path d="M448.676 334.559L448.847 352.817C448.847 352.817 441.068 412.46 442.577 416.002C446.256 424.646 486.674 453.935 486.674 453.935L492.172 444.452L463.129 411.94L474.13 380.3C477.208 372.95 483.753 358.747 483.589 350.778C483.446 343.948 469.943 328.11 469.943 328.11L448.676 334.559Z" fill="#FA7167"/>
<path d="M465.181 361.543C475.892 359.105 484.558 355.309 485.448 352.312C485.848 350.957 479.878 337.334 475.484 319.144C474.051 313.204 474.308 307.625 472.01 286.825C471.52 282.412 469.7 273.167 462.886 270.779C460.491 269.944 459.158 270.048 459.158 270.048C459.1 270.059 450.488 270.116 446.549 272.31C445.576 273.633 441.951 280.874 440.986 300.613C440.564 309.231 438.848 336.904 439.202 341.399C439.256 342.066 439.32 342.711 439.402 343.335C440.94 355.284 453.466 364.21 465.181 361.543Z" fill="#4951EC"/>
<path d="M446.248 285.807C446.256 285.811 446.266 285.807 446.281 285.807C450.646 285.323 461.628 270.897 461.628 270.897L461.603 270.858L454.828 260.096C454.828 260.096 444.847 261.917 446.803 264.964C448.754 268.008 449.848 275.321 449.848 275.321C449.816 275.404 449.773 275.504 449.713 275.626C449.026 277.117 446.788 281.541 446.248 285.807Z" fill="#FB9390"/>
<path d="M446.803 264.961C444.851 261.917 454.832 260.092 454.832 260.092L455.397 260.989C455.411 261.745 455.325 262.437 455.118 263.032C454.038 266.083 451.446 268.768 448.755 270.062C448.258 268.176 447.603 266.212 446.803 264.961Z" fill="#EF7F7F"/>
<path d="M449.194 243.078C449.409 242.874 456.977 255.357 455.161 260.497C453.345 265.638 447.228 269.736 443.596 267.904C439.578 265.875 433.507 251.556 437.168 245.484C440.829 239.411 449.194 243.078 449.194 243.078Z" fill="#FB9390"/>
<path d="M438.233 237.475C442.688 236.514 450.646 237.833 455.125 240.995C460.634 244.881 460.816 251.779 458.335 256.289C455.854 260.799 457.349 264.118 457.349 264.118C457.349 264.118 449.605 263.631 448.04 258.346C447.382 256.127 448.2 254.625 446.713 253.378C445.566 252.413 444.604 249.614 443.467 247.362C443.467 247.362 438.473 244.699 436.571 246.893C435.917 247.638 432.517 238.708 438.233 237.475Z" fill="#0B0754"/>
<path d="M445.93 254.346C446.61 255.977 447.922 256.977 448.869 256.583C449.813 256.188 450.031 254.546 449.355 252.915C448.676 251.284 447.364 250.284 446.416 250.678C445.469 251.073 445.251 252.714 445.93 254.346Z" fill="#FB9390"/>
<path d="M541.947 447.862C541.947 447.862 540.013 466.038 537.807 467.382C537.221 467.74 534.121 468.006 533.835 469.49C533.828 469.526 533.739 471.064 534.704 471.039L546.451 471.014C546.451 471.014 546.587 462.065 546.512 458.563C546.512 458.563 548.135 449.615 547.606 448.948C547.077 448.278 541.947 447.862 541.947 447.862Z" fill="#0B0754"/>
<path d="M282.165 363.873C272.827 344.285 270.264 315.057 280.438 291.869C297.594 252.736 344.798 236.765 341.323 192.412C340.447 181.241 335.492 172.254 328.192 166.475C308.981 151.26 278.068 159.312 256.003 169.938C241.911 176.728 228.823 186.353 216.743 198.822L210.605 120.49C237.088 101.644 269.138 91.7893 301.123 89.269C366.666 84.1031 417.281 108.757 422.432 174.501C427.13 234.463 386.722 261.028 359.616 291.002C344.569 307.64 341.17 320.456 342.335 335.305C342.936 342.98 345.806 352.455 350.422 358.496L282.165 363.873ZM329.226 470.992C265.516 476.011 258.137 390.18 322.497 385.111C385.892 380.113 392.692 465.991 329.226 470.992Z" fill="#62D7A4"/>
<path d="M395.109 239.569C394.991 239.027 395.427 239.454 394.615 235.224C394.379 234.001 393.621 232.714 393.057 232.029C392.753 231.657 392.048 231.026 391.612 230.76C390.883 230.323 390.315 231.036 390.458 231.438C390.604 231.839 391.355 233.23 391.501 233.632C391.648 234.033 391.712 235.023 391.38 235.349C391.047 235.679 385.771 229.61 385.442 229.079C385.163 228.627 384.537 226.652 384.537 226.652C384.537 226.652 384.076 225.214 383.515 225.58C383.147 225.82 382.743 227.003 383.801 229.334C384.727 231.37 386.003 232.994 385.86 233.116C385.481 233.428 383.19 230.678 383.19 230.678C383.19 230.678 382.389 229.144 381.849 228.599C381.509 227.58 380.887 226.311 380.237 226.81C380.115 226.903 380.548 229.072 380.548 229.072C380.548 229.072 381.349 230.506 381.688 231.216C382.289 232.463 383.658 233.976 384.126 234.786C384.516 235.46 384.137 235.306 384.108 235.385C384.083 235.446 383.494 234.689 382.593 233.582C382.139 233.022 381.517 232.492 381.084 231.764C380.684 231.09 380.008 230.241 379.586 229.739C378.399 228.319 377.766 229.283 378.671 230.782C379.014 231.352 379.393 231.972 379.783 232.596C381.288 235.026 383.143 236.926 382.961 237.156C382.728 237.453 379.54 233.79 379.54 233.79C379.54 233.79 377.291 232.288 378.628 234.499C380.18 237.063 381.856 238.705 381.935 238.773C382.464 239.235 383.876 241.411 385.95 242.734C388.023 244.057 391.384 246.054 391.384 246.054C391.77 246.52 392.753 248.04 394.115 250.187L399.141 244.125C397.372 242.279 395.191 239.945 395.109 239.569Z" fill="#FB9390"/>
<path d="M391.144 248.119L398.09 242.024L421.949 265.635C421.949 265.635 458.882 268.883 458.979 268.908L460.459 269.37C473.858 274.009 468.342 284.976 465.761 286.671C459.747 290.622 426.354 288.256 415.654 281.599C406.845 276.121 391.144 248.119 391.144 248.119Z" fill="#7C9AF2"/>
<path d="M142.516 281.975C142.78 282.957 142.934 283.284 143.274 283.94C145.458 288.191 150.52 294.257 150.52 294.257L154.438 284.811C154.438 284.811 153.798 281.846 152.694 277.605C148.908 278.666 145.304 279.276 142.516 281.975Z" fill="#FB9390"/>
<path d="M164.974 273.78C164.974 273.78 143.127 283.85 142.419 283.656C141.965 283.531 133.457 268.295 133.368 253.962C133.325 247.344 139.749 239.382 146.913 240.956C150.52 241.748 150.467 242.824 155.804 251.123C161.138 259.426 164.974 273.78 164.974 273.78Z" fill="#4951EC"/>
<path d="M183.624 454.308C183.624 454.308 183.106 463.492 183.103 463.51C182.913 464.675 182.162 467.558 182.162 468.615C182.162 472.598 199.83 465.234 195.869 463.471C195.511 463.309 193.634 462.101 193.516 460.746C193.334 458.66 192.873 454.433 192.873 454.433L183.624 454.308Z" fill="#FB9390"/>
<path d="M195.822 463.435C195.822 463.435 191.675 464.654 189.552 464.959C187.428 465.263 184.625 462.7 183.124 463.392C181.469 464.156 181.537 471.017 181.537 471.017C181.537 471.017 203.78 472.971 210.033 470.949C212.51 470.146 204.302 466.271 195.822 463.435Z" fill="#0B0754"/>
<path d="M147.482 454.308C147.482 454.308 146.963 463.492 146.96 463.51C146.77 464.675 146.019 467.558 146.019 468.615C146.019 472.598 163.687 465.234 159.726 463.471C159.368 463.309 156.934 461.201 156.816 459.846C156.633 457.76 156.73 454.437 156.73 454.437L147.482 454.308Z" fill="#FB9390"/>
<path d="M159.683 463.435C159.683 463.435 155.536 464.654 153.412 464.959C151.289 465.263 148.486 462.7 146.985 463.392C145.329 464.156 145.265 471.017 145.265 471.017C145.265 471.017 167.609 473.294 173.893 470.949C176.332 470.035 168.163 466.271 159.683 463.435Z" fill="#0B0754"/>
<path d="M152.883 287.062L168.442 263.735C168.506 263.53 168.649 263.111 168.863 262.473C169.646 260.157 171.276 255.342 172.699 250.549L172.714 250.499C173.16 248.825 174.104 245.903 175.019 243.075C176.038 239.931 177.3 236.034 177.343 235.371C177.304 235.256 177.232 235.052 177.132 234.783C176.56 233.198 175.792 229.423 175.516 227.781C175.341 226.734 175.17 224.196 176.331 224.196C178.158 224.196 177.286 226.734 178.13 228.319C178.441 227.258 179.063 225.161 179.395 223.031L179.699 218.073C179.756 217.7 179.384 214.961 180.664 214.961L180.725 214.965C181.876 215.055 181.848 217.962 182.327 222.884C182.477 222.318 182.631 221.637 182.741 221.009C182.727 220.672 182.959 219.195 183.131 218.414C182.899 217.044 183.035 214.883 184.397 215.083C185.079 215.187 185.022 218.202 185.022 218.202C185.015 218.618 184.976 221.805 184.997 222.436C185.137 221.364 185.684 216.801 186.756 216.801C187.643 216.801 187.714 218.03 187.696 219.002C187.686 219.579 187.128 224.523 187.096 225.1C187.514 224.35 188.011 219.991 188.422 219.991C190.152 219.991 189.527 226.19 188.89 227.803C188.83 227.968 188.765 228.294 188.694 228.667C188.479 229.771 188.115 231.621 187.21 233.277C186.123 235.267 184.625 238.429 184.397 238.916C184.229 239.906 183.71 243.458 183.052 247.925C182.774 249.839 182.466 251.937 182.144 254.106L182.126 254.102C182.069 254.572 181.744 256.067 180.514 261.673C178.83 269.349 178.655 269.679 178.58 269.822C177.847 271.209 161.074 295.591 160.359 296.627L159.937 297.24L152.883 287.062Z" fill="#FB9390"/>
<path d="M181.823 232.657C181.823 232.657 180.561 229.201 178.312 229.194C178.312 229.194 179.567 228.71 180.646 229.62C181.723 230.534 181.823 232.657 181.823 232.657Z" fill="#EF7F7F"/>
<path d="M149.122 225.978L147.12 239.536C147.12 239.536 154.753 246.093 159.2 244.713C162.933 243.551 160.373 238.328 160.373 238.328C160.373 238.328 158.385 231.09 158.993 227.297C159.604 223.501 149.122 225.978 149.122 225.978Z" fill="#FB9390"/>
<path d="M150.56 230.076C152.472 231.044 156.254 232.363 159.197 232.682C158.914 230.785 158.753 228.778 158.993 227.297C159.275 225.548 157.191 225.132 154.871 225.193C151.832 225.473 149.122 225.982 149.122 225.982L148.736 228.588C149.315 229.233 149.923 229.753 150.56 230.076Z" fill="#EF7F7F"/>
<path d="M139.492 210.341C139.177 210.341 142.509 225.487 147.664 228.093C152.819 230.7 160.509 229.341 161.953 225.261C163.547 220.748 157.727 205.3 150.474 203.335C143.224 201.371 139.492 210.341 139.492 210.341Z" fill="#FB9390"/>
<path d="M145.458 196.424C141.34 198.965 139.449 202.737 138.812 204.282C136.878 205.264 134.54 207.386 133.418 213.108C132.038 220.142 136.946 225.566 142.148 227.197C147.353 228.828 148.229 232.513 148.229 232.513L148.744 228.548C148.744 228.548 147.585 225.096 145.844 223.368C144.103 221.64 146.67 219.12 146.895 217.066C147.07 215.485 145.98 212.413 146.216 209.817C146.216 209.817 149.108 205.128 151.957 203.966C156.819 201.991 150.742 193.161 145.458 196.424Z" fill="#0B0754"/>
<path d="M147.65 219.701C148.322 221.45 148.046 223.185 147.035 223.58C146.019 223.974 144.654 222.873 143.978 221.124C143.306 219.374 143.581 217.639 144.593 217.245C145.608 216.854 146.978 217.951 147.65 219.701Z" fill="#FB9390"/>
<path d="M166.858 287.439L196.87 282.201C196.87 282.201 193.456 272.998 192.233 272.998C191.014 272.998 169.539 283.033 169.539 283.033L167.83 286.704L166.858 287.439Z" fill="#FB9390"/>
<path d="M151.482 309.461C151.482 309.461 148.486 324.952 149.709 336.7C150.928 348.444 151.024 390.169 151.024 390.169L146.37 456.928L157.416 457.187C157.416 457.187 170.515 390.46 170.272 392.17C170.029 393.883 174.666 345.185 174.666 345.185L159.047 307.991L151.482 309.461Z" fill="#0B0754"/>
<path d="M154.413 308.726C154.413 308.726 152.461 322.675 154.903 328.791C157.345 334.907 175.835 394.934 176.078 399.827C176.321 404.721 182.47 458.814 182.47 458.814L195.315 458.427L198.092 398.286L192.272 322.697L186.624 303.585L154.413 308.726Z" fill="#0B0754"/>
<path d="M147.12 239.533C147.12 239.533 150.288 241.755 153.241 241.501C156.197 241.243 160.373 238.325 160.373 238.325L159.794 236.217C159.794 236.217 152.15 235.026 151.957 235.156C151.764 235.285 147.12 239.533 147.12 239.533Z" fill="#FB9390"/>
<path d="M180.882 272.547C180.882 272.547 192.237 284.011 197.359 282.054C202.482 280.097 204.606 273.404 192.101 263.613C180.911 254.851 180.882 272.547 180.882 272.547Z" fill="#FB9390"/>
<path d="M188.576 286.704C186.888 276.884 174.666 246.326 173.69 240.698C173.214 237.959 166.622 237.902 160.341 238.256C153.709 238.633 147.117 239.533 147.117 239.533C147.117 239.533 141.243 240.565 138.662 243.157C136.077 245.749 135.391 252.912 139.105 266.513C142.037 277.25 145.673 283.147 147.471 290.966C147.835 293.59 148.147 296.179 148.561 299.201C149.223 310.895 148.554 326.343 148.554 326.343C148.554 326.343 180.521 333.437 192.48 322.672C192.48 322.675 190.302 296.763 188.576 286.704Z" fill="#7C9AF2"/>
<path d="M196.727 265.588C196.727 265.588 184.182 276.669 183.453 276.669C182.981 276.669 165.553 262.95 161.531 251.675C159.308 245.444 163.973 238.472 169.3 238.493C172.992 238.508 174.633 239.529 181.955 246.136C189.273 252.747 196.727 265.588 196.727 265.588Z" fill="#4951EC"/>
<path d="M388.334 45.8982L361.136 64.35C358.376 66.2214 354.622 65.4972 352.756 62.7296L334.359 35.4552C332.493 32.6877 333.215 28.9234 335.975 27.0521L363.173 8.6003C365.933 6.72537 369.687 7.45312 371.553 10.2207L389.954 37.4951C391.82 40.2627 391.098 44.0269 388.334 45.8982Z" fill="#62D7A4"/>
<path d="M374.663 26.561C379.425 33.6198 377.581 43.2132 370.541 47.9883C363.502 52.7635 353.936 50.9137 349.174 43.8549C344.412 36.7961 346.257 27.2027 353.296 22.4276C360.331 17.6488 369.902 19.5022 374.663 26.561Z" fill="white"/>
<path d="M356.849 28.8662L363.163 35.7673C363.624 36.2727 363.592 37.0578 363.088 37.5239C362.584 37.9863 361.801 37.9541 361.34 37.4486C361.264 37.3662 361.2 37.2729 361.154 37.1797L356.849 28.8662Z" fill="#FA7167"/>
<path d="M361.654 35.821L371.178 30.4758L362.87 37.5741C362.419 37.9576 361.747 37.9039 361.361 37.4522C360.978 37.0005 361.032 36.3229 361.483 35.9393C361.536 35.8963 361.597 35.8569 361.654 35.821Z" fill="#FA7167"/>
<path d="M120.255 195.28H65.168C55.2403 195.28 47.1967 187.21 47.1967 177.258V165.819C47.1967 155.863 55.2439 147.797 65.168 147.797H120.255C130.182 147.797 138.226 155.867 138.226 165.819V177.258C138.226 187.21 130.182 195.28 120.255 195.28Z" fill="#BED1F9"/>
<path d="M127.422 177.352L149.845 187.429L134.833 166.36L127.422 177.352Z" fill="#BED1F9"/>
<path d="M77.5052 170.002C77.5052 171.935 75.7463 173.501 73.5799 173.501C71.4099 173.501 69.6546 171.935 69.6546 170.002C69.6546 168.07 71.4135 166.503 73.5799 166.503C75.7499 166.5 77.5052 168.07 77.5052 170.002Z" fill="white"/>
<path d="M95.7769 170.002C95.7769 171.935 94.018 173.501 91.8516 173.501C89.6816 173.501 87.9263 171.935 87.9263 170.002C87.9263 168.07 89.6852 166.503 91.8516 166.503C94.018 166.5 95.7769 168.07 95.7769 170.002Z" fill="white"/>
<path d="M114.048 170.002C114.048 171.935 112.29 173.501 110.123 173.501C107.953 173.501 106.198 171.935 106.198 170.002C106.198 168.07 107.957 166.503 110.123 166.503C112.29 166.5 114.048 168.07 114.048 170.002Z" fill="white"/>
<path d="M325.64 9.34241L321.943 1.44474L325.014 0L327.109 4.47761L332.225 1.37304L333.98 4.28403L325.64 9.34241Z" fill="#BED1F9"/>
<path d="M116.497 122.975L108.3 125.904L107.163 122.702L111.807 121.039L109.219 115.633L112.275 114.163L116.497 122.975Z" fill="#62D7A4"/>
<path d="M456.108 43.4032C456.716 45.3498 457.327 47.2964 457.935 49.2431C458.411 50.7667 458.765 53.2367 460.248 54.1007C460.616 54.3158 461.221 54.2154 461.414 53.796C462.146 52.1756 461.092 50.0999 460.584 48.5117C459.966 46.5687 459.344 44.6256 458.725 42.6826C458.196 41.0192 455.586 41.7218 456.108 43.4032Z" fill="#92B5F9"/>
<path d="M476.65 41.2952C473.508 52.0536 473.475 51.731 473.708 52.828C473.89 53.6848 475.056 53.9358 475.635 53.3371C476.368 52.5771 476.185 52.7993 479.224 42.005C479.689 40.3452 477.133 39.6425 476.65 41.2952Z" fill="#92B5F9"/>
<path d="M488.641 65.239C490.492 64.3499 492.344 63.4573 494.196 62.5682C495.844 61.7759 497.968 61.145 499.094 59.6429C499.591 58.9833 498.908 58.1121 498.207 58.0906C496.377 58.0368 494.428 59.4421 492.83 60.2201C490.982 61.1199 489.138 62.0161 487.289 62.916C485.734 63.676 487.093 65.9847 488.641 65.239Z" fill="#92B5F9"/>
<path d="M482.574 97.5575C484.472 100.017 486.378 102.533 488.53 104.778C489.688 105.986 491.372 104.211 490.335 102.967C488.34 100.565 486.292 98.2243 484.365 95.765C483.357 94.478 481.587 96.2848 482.574 97.5575Z" fill="#92B5F9"/>
<path d="M489.563 85.0101C491.279 85.7629 493.013 86.4656 494.757 87.1467C496.348 87.7705 498.24 88.889 499.963 88.6416C500.878 88.5126 500.982 87.2865 500.47 86.7201C499.827 86.0103 499.48 86.064 495.694 84.6014C493.985 83.9417 492.291 83.2463 490.575 82.6045C489.195 82.0883 488.197 84.4114 489.563 85.0101Z" fill="#92B5F9"/>
</svg>
