<svg width="162" height="156" viewBox="0 0 162 156" fill="none" xmlns="http://www.w3.org/2000/svg">
<path d="M73.0973 41.8666C73.5253 42.2291 74.0667 42.4262 74.6239 42.4262C74.6907 42.4262 74.7581 42.4234 74.8252 42.4177C75.4513 42.3642 76.0305 42.0634 76.4342 41.5815L91.5047 23.5996C92.3428 22.5997 92.2115 21.1099 91.2115 20.2722C90.2122 19.4338 88.7221 19.5651 87.884 20.5654L74.3382 36.7272L68.1419 31.4794C67.1466 30.636 65.6556 30.7598 64.8128 31.7553C63.9697 32.7509 64.0935 34.2416 65.089 35.0844L73.0973 41.8666Z" fill="#62D7A4"/>
<path d="M79.0742 63.4398C87.1366 63.4398 95.1985 60.3722 101.336 54.2369C107.279 48.2966 110.552 40.396 110.552 31.9908C110.552 23.586 107.28 15.6836 101.336 9.73789C94.8917 3.29585 85.988 -0.0382368 76.912 0.597337C67.796 1.23323 59.4214 5.7676 53.9362 13.038C53.1507 14.0795 53.358 15.5604 54.3992 16.3462C55.4414 17.1323 56.922 16.9248 57.7078 15.8832C62.3694 9.7045 69.4889 5.85074 77.2411 5.31029C84.9521 4.77392 92.5195 7.60408 97.9959 13.0786C103.047 18.1311 105.828 24.8477 105.828 31.9908C105.828 39.1337 103.047 45.8478 97.9968 50.8959C87.5628 61.3255 70.5865 61.3249 60.1524 50.8959C53.3132 44.0592 50.6982 34.0236 53.3281 24.7044C53.6824 23.449 52.952 22.1439 51.6963 21.7895C50.4428 21.4355 49.1357 22.1659 48.7814 23.4213C45.6873 34.3848 48.7647 46.1927 56.8127 54.2369C62.9502 60.3725 71.0123 63.4398 79.0742 63.4398Z" fill="#62D7A4"/>
<path d="M151.65 117.663C150.865 117.216 150.056 116.756 149.224 116.258L143.048 112.554C145.921 109.503 148.072 105.796 148.919 102.082C149.177 100.961 149.309 99.8587 149.309 98.8099V83.1757C149.309 76.064 143.958 69.6453 135.672 66.8265C128.428 64.3636 121.238 65.5068 117.367 69.639C113.399 70.3382 107.833 73.4846 108.022 85.6701C108.026 85.7772 108.026 85.8654 108.026 85.9347V98.8099C108.026 99.8587 108.158 100.961 108.416 102.073C109.26 105.789 111.408 109.503 114.287 112.558L108.214 116.198C108.17 116.22 108.126 116.249 108.082 116.274C107.263 116.765 106.46 117.222 105.685 117.663C103.364 118.983 101.103 120.264 99.358 122.06L95.0054 119.449C97.8809 116.394 100.032 112.687 100.879 108.977C101.131 107.871 101.26 106.769 101.26 105.701V98.7532C101.26 98.7516 101.261 98.7501 101.261 98.7485V90.0656C101.261 82.9568 95.9121 76.5418 87.6342 73.723C80.3916 71.2563 73.1981 72.3974 69.3273 76.528C65.3564 77.2253 59.7896 80.3713 59.9824 92.5556C59.9843 92.6655 59.9858 92.7556 59.9858 92.8233V95.821V100.087V105.701C59.9858 106.718 60.1118 107.814 60.3669 108.977C61.2141 112.687 63.3653 116.394 66.2439 119.449L61.8976 122.06C60.1496 120.264 57.8883 118.979 55.5639 117.66C54.7797 117.213 53.9702 116.756 53.1419 116.258L53.0789 116.22C53.0726 116.217 53.0666 116.213 53.0603 116.209L46.9644 112.557C49.8403 109.504 51.9908 105.797 52.838 102.083C53.0915 100.985 53.22 99.8845 53.22 98.8112V91.8504V89.1998V83.1763C53.22 76.0663 47.8709 69.65 39.592 66.8303C32.3478 64.3626 25.1515 65.505 21.2779 69.6387C17.3098 70.3363 11.7487 73.4827 11.9417 85.6657C11.9436 85.7759 11.9452 85.866 11.9452 85.9337V88.9232V93.1889V98.8112C11.9452 99.8845 12.0737 100.985 12.3257 102.076C13.1738 105.794 15.3246 109.502 18.1998 112.556L12.0208 116.258C11.1937 116.754 10.3852 117.214 9.6029 117.658C4.66476 120.464 0 123.115 0 130.84V144.717C0 145.187 0 146.619 1.03399 147.635C1.89916 148.485 2.95614 148.577 3.75864 148.577C3.87769 148.577 3.99108 148.576 4.09722 148.574C4.20965 148.572 4.32745 148.569 4.45091 148.569H27.7498C27.7514 148.569 27.753 148.57 27.7546 148.57C27.7561 148.57 27.7577 148.569 27.7593 148.569H32.5802H32.5815H37.3883C37.3896 148.569 37.3908 148.57 37.3921 148.57C37.3934 148.57 37.3946 148.569 37.3959 148.569H48.0391V151.605C48.0391 152.078 48.0391 153.514 49.0784 154.531C49.9445 155.382 50.9996 155.476 51.8027 155.476C51.9224 155.476 52.0358 155.473 52.1429 155.473C52.2531 155.47 52.3697 155.467 52.4925 155.467H55.2137C56.5176 155.467 57.5758 154.408 57.5758 153.105C57.5758 151.801 56.5176 150.742 55.2137 150.742H52.7633V148.569V143.845V137.729C52.7633 132.951 54.8483 131.578 59.9852 128.664C60.0639 128.62 60.1427 128.573 60.2246 128.529C60.5521 128.343 60.8828 128.151 61.223 127.956L65.163 130.507L69.2228 133.137C69.2574 133.155 69.292 133.178 69.3267 133.196C69.6101 133.36 69.859 133.533 70.1015 133.697C70.596 134.034 71.5408 134.68 72.6841 134.68C73.1565 134.68 73.6636 134.57 74.1864 134.283L74.5108 135.555L69.9062 145.53C69.9031 145.536 69.8999 145.546 69.8968 145.552C69.5031 146.365 69.5661 147.262 70.0542 148.002L71.6636 150.742H66.1236C64.8197 150.742 63.7615 151.801 63.7615 153.105C63.7615 154.408 64.8197 155.467 66.1236 155.467H75.7895H75.7958H108.756C108.878 155.467 108.995 155.47 109.105 155.473C109.212 155.473 109.326 155.476 109.445 155.476C110.252 155.476 111.31 155.382 112.179 154.531C113.215 153.514 113.215 152.078 113.215 151.605V148.569H133.473H133.479H156.805C156.924 148.569 157.044 148.572 157.154 148.572C157.261 148.576 157.375 148.579 157.494 148.579C158.298 148.579 159.353 148.484 160.219 147.634C161.255 146.617 161.255 145.187 161.255 144.717V130.841C161.256 123.118 156.591 120.466 151.65 117.663ZM47.4614 118.36L41.4562 122.244C41.2084 122.39 40.9879 122.533 40.7923 122.664L39.5013 121.296C39.4796 121.271 39.456 121.248 39.4333 121.224L37.2812 118.945C37.5134 118.867 37.7483 118.784 37.9874 118.694C39.8147 118.014 41.5891 117.032 43.2442 115.833L47.4614 118.36ZM22.6926 74.2134C23.3503 74.1554 23.9537 73.8251 24.3565 73.3022C26.7543 70.1911 32.3929 69.3688 38.0692 71.302C42.8789 72.9403 48.4957 77.0332 48.4957 83.1763V89.2001V89.4886H47.5011C45.173 89.4886 43.6694 88.191 41.409 86.0739C38.8645 83.6909 35.698 80.725 30.1989 80.725H25.9672C20.8284 80.725 19.9702 84.901 19.4578 87.396C18.8682 90.2649 18.5888 90.8274 16.7089 90.8274H16.6695V88.9239V85.9343C16.6695 85.8477 16.6679 85.7325 16.6654 85.5914C16.552 78.4032 18.5794 74.5753 22.6926 74.2134ZM16.9306 101.019C16.7574 100.27 16.6698 99.5271 16.6698 98.8112V95.5511H16.7092C22.6051 95.5511 23.5679 90.8643 24.0854 88.3466C24.6809 85.449 24.9279 85.449 25.9675 85.449H30.1995C33.8316 85.449 35.8469 87.3362 38.1801 89.5217C40.5278 91.7203 43.1885 94.2125 47.5018 94.2125H48.4964V98.8112C48.4964 99.5271 48.4088 100.27 48.234 101.026C46.9818 106.515 41.8679 112.208 36.3357 114.268C34.9166 114.799 33.7242 115.047 32.5834 115.047C31.4426 115.047 30.2502 114.799 28.8279 114.267C23.2983 112.208 18.1841 106.516 16.9306 101.019ZM35.1137 123.531L34.3465 126.532H30.8027L30.0405 123.543L32.5828 120.85L35.1137 123.531ZM21.921 115.834C23.5754 117.033 25.3489 118.013 27.175 118.693C27.415 118.783 27.6512 118.867 27.8843 118.945L24.3742 122.663C24.1776 122.532 23.9559 122.389 23.7068 122.243L17.7041 118.361L21.921 115.834ZM21.983 141.066L23.6199 143.845H4.72429V130.84C4.72429 126.055 6.80644 124.681 11.9373 121.766C12.3427 121.535 12.7553 121.301 13.176 121.058L21.1843 126.237C21.2152 126.257 21.2461 126.276 21.2776 126.295C21.5607 126.46 21.8101 126.631 22.0514 126.796C22.589 127.164 23.5222 127.804 24.6488 127.804C25.1197 127.804 25.6245 127.69 26.1483 127.4L26.4708 128.666L21.8681 138.638C21.4728 139.426 21.5166 140.321 21.983 141.066ZM36.0447 143.845H32.584C32.5837 143.845 32.5834 143.845 32.5828 143.845H29.1029L26.6166 139.624L30.4786 131.257H34.6696L38.5316 139.624L36.0447 143.845ZM48.0397 137.729V143.845H41.5277L43.1649 141.066C43.6307 140.323 43.6748 139.429 43.2801 138.64L38.6771 128.667L39.0028 127.393C39.5319 127.689 40.0421 127.805 40.518 127.805C41.649 127.805 42.5863 127.161 43.1258 126.79C43.3652 126.626 43.6124 126.456 43.8924 126.292C43.9223 126.275 43.9516 126.256 43.9806 126.238L51.9892 121.058C52.4103 121.301 52.8226 121.536 53.2266 121.767C55.0817 122.823 56.5368 123.673 57.6423 124.561C52.7041 127.363 48.0397 130.015 48.0397 137.729ZM143.543 118.362L137.549 122.242C137.297 122.39 137.074 122.535 136.875 122.668L135.584 121.298C135.559 121.269 135.527 121.238 135.499 121.209L133.363 118.945C133.597 118.869 133.83 118.784 134.069 118.696C135.896 118.013 137.669 117.033 139.326 115.833L143.543 118.362ZM118.781 74.2121C119.439 74.1554 120.044 73.8247 120.447 73.3019C122.841 70.1933 128.475 69.3682 134.151 71.2988C138.963 72.9397 144.585 77.0309 144.585 83.1757V89.4873H143.584C141.256 89.4873 139.754 88.1929 137.496 86.0764C134.951 83.6922 131.786 80.7253 126.28 80.7253H122.047C116.907 80.7253 116.051 84.9016 115.54 87.3992C114.951 90.2652 114.674 90.8259 112.8 90.8259H112.75V85.9347C112.75 85.8496 112.75 85.7331 112.747 85.5945C112.636 78.4041 114.665 74.5743 118.781 74.2121ZM113.021 101.021C112.841 100.246 112.75 99.5028 112.75 98.8099V95.5502H112.8C118.69 95.5502 119.65 90.8637 120.167 88.3472C120.762 85.4496 121.008 85.4496 122.047 85.4496H126.28C129.918 85.4496 131.934 87.3362 134.264 89.522C136.611 91.7203 139.269 94.2116 143.584 94.2116H144.585V98.8099C144.585 99.5028 144.494 100.246 144.314 101.027C143.064 106.517 137.949 112.208 132.412 114.271C131.004 114.8 129.814 115.046 128.664 115.046C127.521 115.046 126.334 114.8 124.916 114.268C119.38 112.205 114.265 106.514 113.021 101.021ZM131.197 123.534L130.434 126.532H126.885L126.123 123.543L128.664 120.85L131.197 123.534ZM118.006 115.836C119.66 117.033 121.433 118.013 123.26 118.693C123.499 118.781 123.735 118.866 123.968 118.945L120.457 122.661C120.258 122.532 120.038 122.39 119.789 122.242L113.792 118.359L118.006 115.836ZM95.5062 125.256L89.5126 129.14C89.2607 129.285 89.037 129.43 88.8386 129.559L85.3238 125.842C85.5568 125.764 85.7899 125.682 86.0292 125.593C87.8591 124.91 89.6323 123.927 91.289 122.724L95.5062 125.256ZM70.7415 81.103C71.3994 81.045 72.0032 80.7146 72.406 80.1915C74.8009 77.0836 80.4357 76.2628 86.1115 78.1953C90.9205 79.8331 96.5364 83.9243 96.5364 90.0659V96.0843C96.5364 96.0859 96.5361 96.0875 96.5361 96.0887V96.3867H95.5418C93.2149 96.3867 91.7132 95.09 89.4553 92.9742C86.9111 90.5903 83.7449 87.6231 78.2398 87.6231H74.0081C68.8678 87.6231 68.0108 91.801 67.499 94.297C66.911 97.1633 66.6326 97.7252 64.7589 97.7252H64.7104V95.821V92.8233C64.7104 92.7367 64.7089 92.6214 64.7063 92.4809C64.5923 85.2928 66.6228 81.4648 70.7415 81.103ZM64.9778 107.944C64.8015 107.134 64.7101 106.381 64.7101 105.701V102.45H64.7586C70.6495 102.45 71.6104 97.7636 72.1269 95.2459C72.7213 92.3471 72.9685 92.3471 74.0081 92.3471H78.2398C81.8775 92.3471 83.8923 94.2349 86.2252 96.421C88.5709 98.6191 91.2297 101.111 95.5421 101.111H96.5364V105.701C96.5364 106.416 96.4482 107.162 96.275 107.921C95.0215 113.404 89.9066 119.099 84.3824 121.165C82.9462 121.697 81.7525 121.946 80.625 121.946C79.5037 121.946 78.3069 121.697 76.8708 121.165C71.3399 119.099 66.225 113.405 64.9778 107.944ZM83.1569 130.425L82.3947 133.423H78.842L78.083 130.434L80.6247 127.745L83.1569 130.425ZM72.4107 129.556C72.2154 129.426 71.995 129.285 71.743 129.14L65.7495 125.256L69.9604 122.724C71.6202 123.927 73.3965 124.91 75.2264 125.597C75.4626 125.682 75.6957 125.764 75.9256 125.839L72.4107 129.556ZM84.086 150.742H77.1444L74.6595 146.513L78.5176 138.147H82.7191L86.5741 146.519L84.086 150.742ZM108.492 150.742H89.5693L91.2071 147.965C91.6637 147.228 91.7141 146.339 91.3299 145.552C91.3268 145.546 91.3236 145.536 91.3204 145.53L86.7253 135.555L87.0497 134.289C87.5757 134.582 88.0859 134.699 88.5583 134.699C89.6827 134.699 90.615 134.063 91.1535 133.697C91.396 133.53 91.6449 133.36 91.9283 133.196C91.963 133.178 91.9976 133.155 92.0322 133.137L100.032 127.956C100.366 128.151 100.7 128.34 101.024 128.526C101.109 128.573 101.194 128.623 101.279 128.671C106.41 131.584 108.492 132.957 108.492 137.729V150.742ZM118.095 141.105L119.707 143.845H113.216V137.729C113.216 130.015 108.551 127.367 103.613 124.56C103.613 124.56 103.61 124.56 103.61 124.557C104.712 123.672 106.167 122.819 108.019 121.77C108.426 121.537 108.841 121.304 109.263 121.058L117.266 126.236C117.295 126.258 117.326 126.277 117.358 126.296C117.641 126.46 117.89 126.63 118.132 126.793C118.63 127.134 119.581 127.786 120.734 127.786C121.203 127.786 121.707 127.675 122.227 127.392L122.551 128.664L117.95 138.639C117.947 138.642 117.947 138.642 117.947 138.645C117.543 139.458 117.6 140.358 118.095 141.105ZM132.126 143.845H125.187L122.702 139.618L126.56 131.256H130.759L134.617 139.615L132.126 143.845ZM156.531 143.845H137.609L139.244 141.067C139.685 140.368 139.754 139.546 139.433 138.784C139.414 138.736 139.392 138.686 139.37 138.639L134.765 128.664L135.089 127.395C135.615 127.688 136.126 127.804 136.601 127.804C137.729 127.804 138.667 127.162 139.206 126.793C139.445 126.63 139.694 126.46 139.977 126.296C140.009 126.277 140.04 126.258 140.072 126.236L148.072 121.058C148.494 121.304 148.91 121.537 149.316 121.77C154.45 124.683 156.531 126.056 156.531 130.841V143.845Z" fill="#62D7A4"/>
</svg>
