<svg width="134" height="143" viewBox="0 0 134 143" fill="none" xmlns="http://www.w3.org/2000/svg">
<path d="M4.58955 58.0933V86.1082L0.495665 91.2786C0.296711 91.5299 0.152598 91.8201 0.0726117 92.1304C-0.00737469 92.4408 -0.0214615 92.7645 0.031259 93.0806L4.58955 120.431V126.937C3.98093 126.937 3.39725 127.178 2.96689 127.609C2.53654 128.039 2.29477 128.623 2.29477 129.231V140.705C2.29477 141.314 2.53654 141.898 2.96689 142.328C3.39725 142.758 3.98093 143 4.58955 143H57.3694C57.978 143 58.5617 142.758 58.9921 142.328C59.4224 141.898 59.6642 141.314 59.6642 140.705V129.231C59.6642 128.623 59.4224 128.039 58.9921 127.609C58.5617 127.178 57.978 126.937 57.3694 126.937V120.241C57.3686 120.05 57.344 119.859 57.2962 119.674L59.6642 119.04V120.052C59.6642 120.661 59.9059 121.245 60.3363 121.675C60.7666 122.105 61.3503 122.347 61.959 122.347H75.7276V126.937C75.119 126.937 74.5353 127.178 74.1049 127.609C73.6746 128.039 73.4328 128.623 73.4328 129.231V140.705C73.4328 141.314 73.6746 141.898 74.1049 142.328C74.5353 142.758 75.119 143 75.7276 143H128.507C129.116 143 129.7 142.758 130.13 142.328C130.56 141.898 130.802 141.314 130.802 140.705V129.231C130.802 128.623 130.56 128.039 130.13 127.609C129.7 127.178 129.116 126.937 128.507 126.937V120.431L133.066 93.0806C133.118 92.7645 133.104 92.4408 133.024 92.1304C132.944 91.8201 132.8 91.5299 132.601 91.2786L128.466 86.058C128.493 85.9171 128.507 85.774 128.507 85.6306V58.0933C128.504 55.4494 127.589 52.8875 125.917 50.8395C124.245 48.7915 121.918 47.3826 119.328 46.8503V14.4925C119.328 13.8839 119.087 13.3002 118.656 12.8699C118.226 12.4395 117.642 12.1978 117.034 12.1978H80.7793L78.1606 2.4246C78.0826 2.13345 77.9481 1.86051 77.7646 1.62138C77.5811 1.38225 77.3523 1.18161 77.0912 1.03092C76.8302 0.880235 76.542 0.782451 76.2432 0.743156C75.9443 0.703861 75.6407 0.723825 75.3495 0.801908L4.41945 19.8078C4.12829 19.8858 3.85535 20.0204 3.61622 20.2039C3.37709 20.3874 3.17645 20.6162 3.02577 20.8772C2.87508 21.1383 2.77729 21.4264 2.738 21.7253C2.6987 22.0241 2.71867 22.3278 2.79675 22.6189L9.73615 48.5175C8.15349 49.5637 6.85495 50.986 5.95678 52.6572C5.05861 54.3283 4.58885 56.1961 4.58955 58.0933ZM64.2537 117.757V104.155C67.6832 104.656 70.8595 106.25 73.3102 108.701C75.7609 111.152 77.3551 114.328 77.8557 117.757H64.2537ZM126.213 138.41H78.0224V131.526H126.213V138.41ZM119.328 74.1567V51.6037C120.67 52.0795 121.831 52.9587 122.652 54.1206C123.474 55.2825 123.916 56.6702 123.918 58.0933V80.3119L119.303 74.4829C119.319 74.3749 119.327 74.2659 119.328 74.1567ZM128.371 93.3299L123.949 119.863C123.928 119.988 123.918 120.114 123.918 120.24V126.937H80.3172V122.535H94.0858C94.6944 122.535 95.2781 122.294 95.7085 121.863C96.1388 121.433 96.3806 120.849 96.3806 120.241V115.651C96.3854 111.392 98.0793 107.309 101.091 104.298C104.102 101.286 108.185 99.5925 112.444 99.5877C112.807 99.5877 113.165 99.5017 113.488 99.3367C113.811 99.1717 114.09 98.9324 114.303 98.6384C114.516 98.3445 114.656 98.0043 114.712 97.6457C114.767 97.2872 114.737 96.9205 114.624 96.5758L109.513 81.0669L109.511 81.0594L107.615 75.3067C107.422 74.7216 107.441 74.0873 107.669 73.515C107.897 72.9427 108.32 72.469 108.862 72.1768C109.404 71.8847 110.032 71.7929 110.636 71.9174C111.239 72.0419 111.779 72.3749 112.161 72.8579L128.371 93.3299ZM103.255 76.7421L104.73 81.2169C101.477 84.7702 97.0847 87.0747 92.3124 87.7315C87.54 88.3884 82.6882 87.3563 78.5964 84.8139C74.5046 82.2715 71.4302 78.3787 69.9053 73.8091C68.3804 69.2395 68.5009 64.2805 70.2458 59.7904C71.9908 55.3002 75.2505 51.5612 79.461 49.2205C83.6714 46.8797 88.5676 46.0844 93.3025 46.9722C98.0373 47.86 102.313 50.375 105.389 54.0821C108.466 57.7892 110.149 62.455 110.149 67.2724V67.2813C109.005 67.2711 107.874 67.5341 106.851 68.0485C105.829 68.5629 104.944 69.3139 104.27 70.239C103.596 71.1642 103.152 72.2368 102.976 73.3678C102.799 74.4988 102.895 75.6556 103.256 76.7421H103.255ZM114.739 16.7873V30.3893C111.309 29.8887 108.133 28.2945 105.682 25.8438C103.232 23.3931 101.637 20.2168 101.137 16.7873H114.739ZM82.4814 16.7873H96.5111C97.0382 21.4399 99.1281 25.7761 102.439 29.0871C105.75 32.398 110.086 34.4879 114.739 35.015V68.9648C114.721 68.9496 114.702 68.9361 114.683 68.9203C114.719 68.3713 114.739 67.82 114.739 67.2715C114.738 61.4921 112.754 55.888 109.118 51.3956C105.482 46.9033 100.414 43.7949 94.7615 42.5899C89.109 41.3849 83.2143 42.1562 78.0622 44.775C72.9101 47.3937 68.8128 51.7013 66.4549 56.9779C64.097 62.2545 63.6215 68.1805 65.1077 73.7656C66.5939 79.3507 69.9518 84.2566 74.6203 87.6635C79.2888 91.0704 84.9852 92.7719 90.7574 92.4837C96.5297 92.1955 102.028 89.935 106.334 86.0801L109.349 95.2288C104.466 95.9759 100.012 98.4456 96.7915 102.191C93.5711 105.937 91.7974 110.711 91.791 115.651V117.946H82.5052C82.017 113.256 79.9414 108.873 76.6222 105.524C73.3029 102.175 68.9392 100.06 64.2537 99.5298V35.015C68.9063 34.4879 73.2425 32.398 76.5535 29.0871C79.8644 25.7761 81.9543 21.4399 82.4814 16.7873ZM77.8557 16.7873C77.3551 20.2168 75.7609 23.3931 73.3102 25.8438C70.8595 28.2945 67.6832 29.8887 64.2537 30.3893V16.7873H77.8557ZM74.3221 5.82976L76.0279 12.1978H62.7676C62.1458 11.3039 61.6164 10.3493 61.1873 9.34851L74.3221 5.82976ZM20.9361 72.8567C21.3185 72.3737 21.8587 72.0408 22.462 71.9162C23.0654 71.7917 23.6933 71.8836 24.2357 72.1757C24.778 72.4678 25.2002 72.9416 25.4283 73.5139C25.6563 74.0862 25.6755 74.7205 25.4826 75.3055L18.4729 96.5747C18.3595 96.9194 18.3295 97.286 18.3853 97.6446C18.4411 98.0031 18.5811 98.3434 18.7939 98.6373C19.0066 98.9312 19.2861 99.1705 19.6092 99.3356C19.9324 99.5006 20.2901 99.5866 20.653 99.5866C24.9118 99.5914 28.9948 101.285 32.0063 104.297C35.0177 107.308 36.7116 111.391 36.7164 115.65V120.24C36.7164 120.848 36.9582 121.432 37.3885 121.862C37.8189 122.293 38.4026 122.534 39.0112 122.534H52.7798V126.937H9.1791V120.241C9.17901 120.114 9.16855 119.988 9.14783 119.863L4.7258 93.3301L20.9361 72.8567ZM40.5713 110.193C43.573 111.983 45.9069 114.706 47.217 117.946H41.306V115.651C41.3065 113.807 41.0594 111.971 40.5713 110.193ZM37.7261 104.049C36.1278 101.697 34.0616 99.7002 31.6567 98.1827C29.2518 96.6652 26.5598 95.6599 23.7489 95.2296L27.5109 83.8131C30.9507 87.2071 35.2865 89.5504 40.0103 90.5687L44.4882 107.281C42.4499 105.801 40.1582 104.706 37.7261 104.049ZM29.1614 78.8068L29.8415 76.7415C30.1562 75.7952 30.2706 74.7937 30.1774 73.8008C30.0842 72.8079 29.7854 71.8453 29.3001 70.9741C28.8147 70.1029 28.1535 69.3422 27.3583 68.7403C26.5631 68.1384 25.6514 67.7086 24.6812 67.4781C24.4678 64.7317 24.8058 61.9703 25.6754 59.3565C26.5449 56.7427 27.9285 54.3292 29.7446 52.258L38.6331 85.4298C34.9132 84.1615 31.6291 81.8648 29.1614 78.8059V78.8068ZM55.0746 138.41H6.88432V131.526H55.0746V138.41ZM59.6642 114.289L51.6898 116.425L48.1705 103.292C52.2526 102.807 56.3654 103.903 59.6642 106.356V114.289ZM59.6642 64.3282C59.5067 64.4152 59.3396 64.4834 59.1662 64.5316C58.8751 64.6097 58.5715 64.6296 58.2726 64.5904C57.9738 64.5511 57.6856 64.4533 57.4246 64.3027C57.1635 64.152 56.9347 63.9514 56.7512 63.7123C56.5677 63.4732 56.4331 63.2003 56.3551 62.9092L55.1673 58.4759C55.0893 58.1848 54.9547 57.912 54.7713 57.6729C54.5878 57.4338 54.3591 57.2332 54.0981 57.0825C53.8371 56.9318 53.549 56.834 53.2502 56.7947C52.9514 56.7554 52.6478 56.7753 52.3567 56.8532C52.0657 56.9312 51.7928 57.0658 51.5537 57.2493C51.3146 57.4327 51.114 57.6615 50.9633 57.9224C50.8126 58.1834 50.7148 58.4715 50.6755 58.7703C50.6362 59.0691 50.6561 59.3727 50.7341 59.6638L51.3281 61.8802L49.1114 62.4743C48.8203 62.5523 48.5474 62.6869 48.3083 62.8703C48.0692 63.0538 47.8686 63.2825 47.7179 63.5435C47.5673 63.8045 47.4694 64.0926 47.4301 64.3914C47.3908 64.6901 47.4107 64.9937 47.4887 65.2848C47.5667 65.5759 47.7012 65.8488 47.8847 66.0879C48.0681 66.327 48.2969 66.5276 48.5579 66.6783C48.8188 66.8289 49.1069 66.9267 49.4057 66.9661C49.7045 67.0054 50.0081 66.9855 50.2992 66.9075L52.8969 66.2116C53.6314 67.2893 54.6587 68.1346 55.8577 68.6478C57.0567 69.161 58.3774 69.3207 59.6642 69.1082V81.5175C55.0034 80.7528 50.7453 78.4142 47.5995 74.8912C44.4536 71.3683 42.6099 66.8737 42.3755 62.1564C42.1412 57.4391 43.5303 52.784 46.3115 48.9665C49.0926 45.1491 53.0979 42.3999 57.66 41.1771C58.3212 41.0001 58.9909 40.8566 59.6642 40.7468V64.3282ZM56.7148 10.547C57.4428 12.4082 58.4362 14.1544 59.6642 15.7311V36.1053C58.5876 36.2502 57.5214 36.4637 56.4721 36.7447C51.9484 37.9571 47.8512 40.4041 44.6387 43.8119C41.4261 47.2197 39.2248 51.4541 38.2811 56.0413C37.3373 60.6286 37.6883 65.388 39.2947 69.7872C40.9011 74.1865 43.6997 78.0521 47.3774 80.9518C50.9395 83.743 55.1802 85.536 59.6642 86.1469V100.952C55.7682 98.9084 51.3218 98.1611 46.9718 98.8187L38.6231 67.6605L30.2758 36.5023C34.6334 34.7886 38.2807 31.6474 40.6216 27.5922C42.9626 23.5369 43.8586 18.8075 43.1633 14.177L56.7148 10.547ZM38.6982 15.3743C39.1022 18.8173 38.3841 22.2987 36.6508 25.3008C34.9175 28.303 32.2616 30.6655 29.078 32.0373L25.5581 18.8956L38.6982 15.3743ZM23.884 30.3864L28.3692 47.1274C25.4928 49.7219 23.2518 52.9432 21.8193 56.5422C20.3868 60.1412 19.8013 64.0214 20.108 67.8828C19.9786 67.9402 19.8498 67.995 19.7224 68.0589L12.5398 41.2536C17.6058 39.2682 21.6829 35.3625 23.884 30.3864ZM7.82375 23.6473L20.9613 20.1268C21.3653 23.5689 20.6475 27.0496 18.9146 30.051C17.1817 33.0525 14.5263 35.4145 11.3434 36.7857L7.82375 23.6473ZM9.1791 58.0933C9.17865 56.3443 9.84431 54.6607 11.0407 53.385L15.9607 71.7472L9.1791 80.3119V58.0933Z" fill="#62D7A4"/>
<path d="M103.265 64.9776H100.575C100.034 63.4472 98.9684 62.1575 97.5679 61.3364C96.1674 60.5152 94.5217 60.2154 92.9216 60.49C91.3215 60.7645 89.8699 61.5958 88.8232 62.8368C87.7766 64.0779 87.2022 65.6489 87.2015 67.2724C87.2015 67.881 86.9598 68.4647 86.5294 68.895C86.099 69.3254 85.5154 69.5672 84.9067 69.5672C84.2981 69.5672 83.7144 69.3254 83.2841 68.895C82.8537 68.4647 82.612 67.881 82.612 67.2724V62.6828C82.612 62.0742 82.3702 61.4905 81.9398 61.0602C81.5095 60.6298 80.9258 60.3881 80.3172 60.3881C79.7086 60.3881 79.1249 60.6298 78.6945 61.0602C78.2642 61.4905 78.0224 62.0742 78.0224 62.6828V64.9776H75.7276C75.119 64.9776 74.5353 65.2194 74.105 65.6497C73.6746 66.0801 73.4329 66.6638 73.4329 67.2724C73.4329 67.881 73.6746 68.4647 74.105 68.895C74.5353 69.3254 75.119 69.5672 75.7276 69.5672H78.4171C78.9589 71.0976 80.0242 72.3873 81.4247 73.2084C82.8252 74.0296 84.4709 74.3293 86.071 74.0548C87.6711 73.7802 89.1227 72.949 90.1694 71.708C91.216 70.4669 91.7904 68.8959 91.7911 67.2724C91.7911 66.6638 92.0328 66.0801 92.4632 65.6497C92.8935 65.2194 93.4772 64.9776 94.0858 64.9776C94.6945 64.9776 95.2781 65.2194 95.7085 65.6497C96.1389 66.0801 96.3806 66.6638 96.3806 67.2724V71.8619C96.3806 72.4706 96.6224 73.0542 97.0527 73.4846C97.4831 73.9149 98.0668 74.1567 98.6754 74.1567C99.284 74.1567 99.8677 73.9149 100.298 73.4846C100.728 73.0542 100.97 72.4706 100.97 71.8619V69.5672H103.265C103.874 69.5672 104.457 69.3254 104.888 68.895C105.318 68.4647 105.56 67.881 105.56 67.2724C105.56 66.6638 105.318 66.0801 104.888 65.6497C104.457 65.2194 103.874 64.9776 103.265 64.9776Z" fill="#62D7A4"/>
</svg>
