<svg width="22" height="23" viewBox="0 0 22 23" fill="none" xmlns="http://www.w3.org/2000/svg">
<path d="M6.259 7.25902C6.77197 6.74623 7.12134 6.09284 7.26294 5.38147C7.40454 4.67011 7.332 3.93273 7.05449 3.2626C6.77698 2.59246 6.30697 2.01968 5.70391 1.61669C5.10085 1.21369 4.39182 0.998596 3.6665 0.998596C2.94118 0.998596 2.23215 1.21369 1.62909 1.61669C1.02602 2.01968 0.556015 2.59246 0.278507 3.2626C0.000999004 3.93273 -0.0715438 4.67011 0.0700538 5.38147C0.211651 6.09284 0.561029 6.74623 1.074 7.25902C1.76166 7.94643 2.69418 8.3326 3.6665 8.3326C4.63882 8.3326 5.57134 7.94643 6.259 7.25902ZM20.926 16.74C20.4132 16.2272 19.7598 15.878 19.0484 15.7365C18.3371 15.595 17.5998 15.6676 16.9298 15.9452C16.2597 16.2227 15.687 16.6927 15.2841 17.2958C14.8811 17.8988 14.6661 18.6078 14.6661 19.333C14.6661 20.0583 14.8811 20.7672 15.2841 21.3703C15.687 21.9733 16.2597 22.4433 16.9298 22.7209C17.5998 22.9984 18.3371 23.071 19.0484 22.9296C19.7598 22.7881 20.4132 22.4388 20.926 21.926C21.2665 21.5855 21.5366 21.1813 21.7209 20.7363C21.9052 20.2914 22.0001 19.8146 22.0001 19.333C22.0001 18.8514 21.9052 18.3746 21.7209 17.9297C21.5366 17.4848 21.2665 17.0805 20.926 16.74ZM20.814 3.48102L19.514 2.18102C19.1703 1.83734 18.7041 1.64427 18.218 1.64427C17.7319 1.64427 17.2657 1.83734 16.922 2.18102L1.185 17.926C0.841321 18.2698 0.648252 18.7359 0.648252 19.222C0.648252 19.7081 0.841321 20.1743 1.185 20.518L2.485 21.818C2.82874 22.1617 3.29492 22.3548 3.781 22.3548C4.26708 22.3548 4.73325 22.1617 5.077 21.818L20.814 6.07402C20.9843 5.90379 21.1194 5.70168 21.2116 5.47922C21.3038 5.25676 21.3512 5.01832 21.3512 4.77752C21.3512 4.53672 21.3038 4.29827 21.2116 4.07581C21.1194 3.85336 20.9843 3.65124 20.814 3.48102Z" fill="#62D7A4"/>
</svg>
