<svg width="35" height="35" viewBox="0 0 35 35" fill="none" xmlns="http://www.w3.org/2000/svg">
<path d="M20.908 7.65601C22.3731 7.94185 23.7196 8.65839 24.7751 9.71391C25.8306 10.7694 26.5472 12.1159 26.833 13.581L20.908 7.65601ZM20.908 1.65601C23.9519 1.99416 26.7904 3.35727 28.9574 5.52152C31.1243 7.68577 32.491 10.5225 32.833 13.566L20.908 1.65601ZM31.333 25.536V30.036C31.3347 30.4538 31.2491 30.8673 31.0818 31.25C30.9144 31.6328 30.6689 31.9764 30.3611 32.2588C30.0533 32.5412 29.6899 32.7562 29.2941 32.8901C28.8984 33.0239 28.4791 33.0736 28.063 33.036C23.4477 32.536 19.0139 30.9605 15.118 28.436C11.4937 26.133 8.421 23.0603 6.118 19.436C3.58223 15.5213 2.0046 11.0642 1.513 6.42601C1.47551 6.01121 1.52481 5.59315 1.65775 5.19844C1.79069 4.80374 2.00435 4.44104 2.28515 4.13344C2.56594 3.82584 2.90771 3.58007 3.28869 3.41179C3.66966 3.24351 4.08151 3.1564 4.498 3.15601H8.998C9.72596 3.14884 10.4317 3.40662 10.9836 3.8813C11.5356 4.35599 11.8961 5.01518 11.998 5.73601C12.1876 7.1778 12.5398 8.59349 13.048 9.95601C13.2498 10.4929 13.2935 11.0764 13.1739 11.6373C13.0542 12.1983 12.7763 12.7132 12.373 13.121L10.468 15.021C12.6033 18.7763 15.7127 21.8857 19.468 24.021L21.368 22.116C21.7758 21.7127 22.2907 21.4348 22.8517 21.3151C23.4126 21.1955 23.9961 21.2392 24.533 21.441C25.8939 21.9488 27.3079 22.3011 28.748 22.491C29.4776 22.5927 30.1442 22.9592 30.6209 23.5208C31.0976 24.0823 31.3511 24.7996 31.333 25.536Z" stroke="#62D7A4" stroke-width="3" stroke-linecap="round" stroke-linejoin="round"/>
</svg>
