<svg width="16" height="29" viewBox="0 0 16 29" fill="none" xmlns="http://www.w3.org/2000/svg">
<path d="M8.459 12.524C4.959 11.613 3.828 10.672 3.828 9.20498C3.828 7.52198 5.387 6.34898 7.996 6.34898C10.744 6.34898 11.763 7.66098 11.855 9.59098H15.266C15.2309 8.19367 14.721 6.84996 13.8204 5.78104C12.9198 4.71211 11.6821 3.98168 10.311 3.70998V0.328979H5.681V3.66298C2.686 4.31098 0.281 6.25598 0.281 9.23598C0.281 12.802 3.229 14.577 7.536 15.611C11.395 16.537 12.167 17.896 12.167 19.331C12.167 20.396 11.411 22.094 7.999 22.094C4.819 22.094 3.569 20.674 3.399 18.852H0C0.185 22.229 2.72 24.129 5.681 24.765V28.115H10.312V24.796C13.322 24.225 15.712 22.481 15.712 19.316C15.714 14.929 11.963 13.435 8.459 12.524Z" fill="#62D7A4"/>
</svg>
