<svg width="32" height="32" viewBox="0 0 32 32" fill="none" xmlns="http://www.w3.org/2000/svg">
<path d="M26.782 4.967C24.1038 2.29114 20.5445 0.679526 16.7667 0.432085C12.9888 0.184645 9.24979 1.31824 6.24539 3.62189C3.241 5.92554 1.17592 9.24232 0.434509 12.9549C-0.306905 16.6676 0.325846 20.5231 2.215 23.804L0 31.89L8.276 29.717C10.5643 30.9651 13.1295 31.6184 15.736 31.617H15.743C19.8966 31.6164 23.882 29.9761 26.8327 27.0527C29.7834 24.1294 31.4607 20.1594 31.5 16.006C31.4777 13.9462 31.0495 11.911 30.24 10.0168C29.4304 8.12262 28.2554 6.40663 26.782 4.967ZM15.743 28.986C13.4177 28.9879 11.1348 28.3637 9.134 27.179L8.663 26.898L3.755 28.185L5.063 23.397L4.754 22.905C3.71576 21.1957 3.08588 19.27 2.91334 17.2776C2.74081 15.2851 3.03029 13.2798 3.75926 11.4175C4.48822 9.55519 5.63702 7.88619 7.11627 6.54033C8.59552 5.19448 10.3653 4.20805 12.288 3.6578C14.2107 3.10755 16.2344 3.00831 18.2017 3.3678C20.169 3.7273 22.0269 4.53583 23.6307 5.7305C25.2345 6.92517 26.5411 8.47377 27.4488 10.2558C28.3565 12.0378 28.8408 14.0053 28.864 16.005C28.8274 19.4604 27.4289 22.7618 24.9724 25.1922C22.5158 27.6225 19.1996 28.9855 15.744 28.985L15.743 28.986ZM22.859 19.269C22.472 19.069 20.553 18.13 20.194 18.003C19.835 17.876 19.575 17.803 19.315 18.203C19.055 18.603 18.31 19.469 18.078 19.736C17.846 20.003 17.621 20.036 17.234 19.836C14.9873 18.939 13.1142 17.3017 11.925 15.195C11.525 14.506 12.325 14.555 13.071 13.065C13.1218 12.9572 13.1452 12.8386 13.1391 12.7196C13.133 12.6006 13.0976 12.485 13.036 12.383C12.936 12.183 12.157 10.267 11.836 9.483C11.52 8.724 11.196 8.829 10.957 8.815C10.718 8.801 10.472 8.801 10.212 8.801C10.0145 8.8064 9.8203 8.85222 9.64125 8.93564C9.4622 9.01906 9.30215 9.1383 9.171 9.286C8.72932 9.70366 8.37934 10.2086 8.14332 10.7688C7.90729 11.329 7.79038 11.9322 7.8 12.54C7.92868 14.0106 8.48059 15.4124 9.389 16.576C9.589 16.836 12.138 20.776 16.055 22.468C18.53 23.537 19.5 23.628 20.738 23.445C21.281 23.3347 21.7952 23.1127 22.2479 22.7932C22.7007 22.4737 23.0821 22.0637 23.368 21.589C23.6225 21.0055 23.7007 20.3604 23.593 19.733C23.505 19.557 23.245 19.459 22.859 19.269Z" fill="#62D7A4"/>
</svg>
