<svg width="816" height="590" viewBox="0 0 816 590" fill="none" xmlns="http://www.w3.org/2000/svg">
<path d="M50.5518 588.611C50.5518 588.611 -46.0406 457.781 34.2159 316.134C105.425 190.456 188.451 199.048 249.36 250.05C275.304 271.771 350.102 252.729 413.766 124.848C500.586 -49.5453 801.53 56.224 746.657 324.535C720.103 454.379 827.47 459.097 772.762 588.889L50.5518 588.611Z" fill="#62D7A4"/>
<path d="M815.195 590H0.804907C0.362208 590 0 589.638 0 589.196V588.575C0 588.133 0.362208 587.771 0.804907 587.771H815.195C815.638 587.771 816 588.133 816 588.575V589.196C816 589.638 815.638 590 815.195 590Z" fill="#4A2C6A"/>
<path d="M319.404 172.835C360.283 136.508 372.193 83.2284 346.007 53.8309C319.82 24.4334 265.453 30.0504 224.574 66.3768C183.695 102.703 171.785 155.983 197.972 185.38C224.158 214.778 278.525 209.161 319.404 172.835Z" fill="#62D7A4"/>
<path d="M149.423 183.424C158.516 175.345 156.779 158.57 145.544 145.957C134.309 133.345 117.83 129.67 108.737 137.75C99.6451 145.83 101.382 162.604 112.617 175.217C123.852 187.83 140.331 191.504 149.423 183.424Z" fill="#62D7A4"/>
<path d="M739.322 124.464C735.597 107.994 742.205 92.4744 754.077 89.7958C765.949 87.1172 778.59 98.2993 782.315 114.765C786.039 131.235 779.432 146.755 767.559 149.43C755.687 152.112 743.043 140.934 739.322 124.464Z" fill="#62D7A4"/>
<path d="M457.37 565.429C434.617 561.771 417.443 569.733 400.924 567.446C387.753 565.622 380.889 552.31 363.189 548.542C367.4 546.061 372.306 542.959 374.648 540.704C379.203 536.322 385.744 527.556 374.648 527.212C366.664 526.964 360.445 540.247 357.584 547.72C354.964 547.501 352.125 547.483 349.033 547.713C352.688 535.953 359.812 513.187 361.553 508.813C363.924 502.86 353.965 483.021 342.224 505.287C333.989 520.905 339.583 538.954 343.655 548.338C340.439 548.857 337.402 549.602 334.505 550.508C324.802 528.4 293.941 465.375 260.486 473.206C224.013 481.742 302.155 524.117 321.86 555.533C305.762 562.988 291.614 572.039 267.163 565.429C202.182 547.859 197.027 587.395 197.027 587.395L487.426 587.493C487.426 587.493 480.12 569.087 457.37 565.429Z" fill="#4F52FF"/>
<path d="M378.372 423.164C378.672 425.956 382.623 425.854 387.094 425.185C391.562 424.516 390.409 425.689 396.695 425.569C402.977 425.448 405.077 423.303 405.347 422.397C405.593 421.593 402.545 421.023 399.281 420.343C398.872 420.259 398.458 420.168 398.048 420.08C394.368 419.276 391.862 416.627 388.66 414.35C385.627 412.19 383.582 402.302 383.582 402.302L374.648 402.251C374.648 402.251 377.454 411.196 378.917 414.306C379.777 416.137 378.862 418.487 378.573 420.248C378.416 421.202 378.266 422.181 378.372 423.164Z" fill="#FFB792"/>
<path d="M387.094 425.185C391.562 424.516 390.409 425.689 396.695 425.569C402.977 425.448 405.077 423.303 405.347 422.397C405.593 421.593 402.545 421.023 399.281 420.343L399.245 420.402C399.245 420.402 395.271 422.704 390.083 422.357C385.854 422.075 381.493 420.46 378.573 420.241C378.42 421.198 378.266 422.178 378.372 423.164C378.668 425.956 382.623 425.854 387.094 425.185Z" fill="#4A2C76"/>
<path d="M308.528 422.722C308.722 425.521 312.677 425.572 317.17 425.072C321.659 424.571 320.463 425.7 326.748 425.817C333.034 425.934 335.207 423.869 335.518 422.97C335.793 422.177 332.771 421.49 329.533 420.69C329.126 420.592 328.717 420.486 328.311 420.38C324.663 419.437 322.259 416.696 319.146 414.299C316.197 412.03 318.622 402.609 318.622 402.609L311.843 399.411C311.843 399.411 310.91 409.121 310.409 414.028C310.204 416.038 309.201 418.059 308.846 419.81C308.649 420.763 308.459 421.735 308.528 422.722Z" fill="#FFB792"/>
<path d="M317.17 425.072C321.659 424.571 320.463 425.7 326.748 425.817C333.034 425.934 335.207 423.869 335.518 422.97C335.793 422.177 332.77 421.491 329.533 420.69L329.492 420.749C329.492 420.749 325.435 422.901 320.261 422.357C316.047 421.914 311.748 420.138 308.839 419.81C308.649 420.76 308.459 421.735 308.528 422.722C308.722 425.521 312.677 425.569 317.17 425.072Z" fill="#4A2C76"/>
<path d="M323.755 282.924C323.755 282.924 321.879 292.005 319.998 338.056C319.998 338.056 316.511 346.582 313.98 357.011C311.451 367.437 309.666 410.941 309.666 410.941C309.666 410.941 310.676 412.391 313.738 412.578C316.241 412.728 318.187 411.631 318.187 411.631C318.187 411.631 335.774 354.65 344.335 332.531C352.897 310.408 357.913 278.82 357.913 278.82L323.755 282.924Z" fill="#EAEAEA"/>
<path d="M344.906 286.812C344.906 286.812 346.293 295.981 360.492 339.836C360.492 339.836 360.178 349.041 361.418 359.697C362.658 370.353 377.029 412.307 377.029 412.307C377.029 412.307 378.939 412.969 381.8 412.216C384.46 411.514 386.549 409.914 386.549 409.914C386.549 409.914 381.039 349.947 381.401 326.231C381.764 302.518 375.518 271.15 375.518 271.15L344.906 286.812Z" fill="#EAEAEA"/>
<path d="M370.056 159.801C367.832 158.387 365.091 158.105 363.167 158.123C363.686 157.637 364.667 157.502 364.667 157.502C363.485 157.265 360.77 158.313 360.77 158.313C344.529 151.111 340.706 175.339 340.772 181.014C340.834 186.689 340.552 193.204 332.028 197.867C315.26 207.04 328.113 225.157 328.113 225.157C325.095 233.807 336.268 244.404 336.268 244.404C336.078 239.811 357.188 210.548 368.571 203.871C371.45 200.06 372.752 193.139 372.851 192.594C372.112 198.098 371.011 201.149 370.078 202.852C379.839 194.739 375.954 163.55 370.056 159.801Z" fill="#FF4A1E"/>
<path d="M366.518 200.736C366.577 200.761 361.191 203.553 357.144 202.446C353.336 201.408 350.848 196.475 350.899 196.464C352.513 196.142 352.977 193.932 352.944 184.42L353.672 184.562L365.494 186.901L365.933 186.985C365.933 186.985 365.651 190.836 365.644 194.469C365.64 195.236 365.651 195.993 365.68 196.702C365.757 198.814 365.995 200.491 366.518 200.736Z" fill="#FFB792"/>
<path d="M365.64 194.472C365.636 195.24 365.647 195.996 365.677 196.705C358.802 196.428 354.836 188.574 353.343 185.132L365.49 186.904L365.929 186.989C365.929 186.989 365.651 190.84 365.64 194.472Z" fill="#F2AC8C"/>
<path d="M352.403 183.228C352.403 183.228 348.806 177.553 347.947 172.704C347.328 169.24 349.095 156.402 362.014 158.251C362.014 158.251 365.764 158.62 369.291 160.999C372.097 162.892 376.144 166.974 371.618 178.178L370.444 181.964L352.403 183.228Z" fill="#FF4A1E"/>
<path d="M366.653 192.693C366.653 192.693 350.559 190.566 352.037 180.579C353.515 170.588 352.436 163.587 362.775 164.518C373.115 165.454 374.541 169.558 374.86 173.015C375.178 176.468 370.879 192.989 366.653 192.693Z" fill="#FFB792"/>
<path d="M370.122 165.363C370.122 165.363 363.979 176.428 356.973 177.155C349.966 177.882 347.31 175.642 347.31 175.642C347.31 175.642 353.098 172.306 355.242 165.3C355.242 165.3 367.638 159.289 370.122 165.363Z" fill="#FF4A1E"/>
<path d="M368.892 166.152C368.892 166.152 371.786 169.258 372.207 171.918C372.628 174.582 372.207 179.87 373.762 179.921C373.762 179.921 378.262 172.448 375.211 167.391C371.977 162.023 368.892 166.152 368.892 166.152Z" fill="#FF4A1E"/>
<path d="M475.773 301.886C472.396 294.742 463.012 288.833 455.102 288.829C449.262 288.829 444.111 290.817 440.123 294.062C437.844 295.915 434.405 294.695 433.786 291.822L426.864 259.698C425.854 255.013 421.233 252.035 416.547 253.043L304.537 277.121C299.956 278.108 297.04 282.614 298.028 287.192L322.109 398.947C322.797 402.145 325.146 404.557 328.054 405.481L326.584 405.898H330.93L330.967 405.89C331.497 405.876 332.035 405.814 332.577 405.697L335.017 405.171L363.763 398.991C367.799 398.125 369.434 393.25 366.723 390.14C364.103 387.14 362.219 383.42 361.418 379.207C359.157 367.338 366.503 355.582 378.178 352.421C391.167 348.906 404.283 357.004 407.074 369.973C408.124 374.851 407.561 379.704 405.743 383.968C405.037 385.627 405.622 387.349 406.837 388.328L405.161 389.147L409.046 389.143C409.335 389.15 409.639 389.125 409.943 389.059L444.268 381.681C448.959 380.672 451.944 376.057 450.935 371.368L444.056 339.445C443.42 336.492 446.116 333.901 449.047 334.654C452.435 335.524 456.071 335.641 459.726 334.855C474.083 331.774 482.48 316.072 475.773 301.886Z" fill="#FF4A1E"/>
<path d="M451.147 288.829C445.307 288.829 440.156 290.817 436.168 294.062C433.889 295.915 430.453 294.695 429.831 291.822L422.909 259.698C421.899 255.013 417.278 252.035 412.588 253.043L300.578 277.121C295.997 278.108 293.081 282.614 294.069 287.192L318.15 398.947C319.175 403.698 323.862 406.72 328.618 405.7L359.804 398.995C363.84 398.129 365.475 393.254 362.764 390.144C360.145 387.144 358.26 383.424 357.459 379.211C355.198 367.342 362.545 355.586 374.22 352.425C387.208 348.909 400.324 357.007 403.119 369.976C404.173 374.855 403.606 379.708 401.788 383.972C400.606 386.746 403.035 389.698 405.984 389.063L440.31 381.685C445 380.676 447.986 376.061 446.976 371.372L440.097 339.448C439.461 336.496 442.157 333.905 445.088 334.658C448.476 335.527 452.113 335.644 455.768 334.859C470.131 331.771 478.524 316.068 471.822 301.883C468.441 294.742 459.053 288.829 451.147 288.829Z" fill="url(#paint0_linear)"/>
<path d="M410.162 246.341C410.162 246.341 417.15 247.485 418.98 252.024C420.809 256.562 418.255 259.635 417.271 259.624C416.287 259.614 414.403 258.886 413.521 256.533C412.636 254.18 410.162 246.341 410.162 246.341Z" fill="#FFB792"/>
<path d="M313.98 266.593C313.98 266.593 321.824 266.582 324.645 271.212C327.465 275.842 325.226 279.661 324.151 279.829C323.075 279.993 320.883 279.54 319.493 277.128C318.099 274.713 313.98 266.593 313.98 266.593Z" fill="#FFB792"/>
<path d="M410.356 251.611C409.661 251.461 406.621 251.106 402.753 250.496C395.634 249.382 385.708 247.416 382.375 244.346C381.475 243.513 379.371 238.927 377.187 233.672C374.977 245.307 374.856 254.231 375.441 261.024L327.312 271.369C331.439 263.038 337.827 252.703 336.627 244.342C336.184 241.243 334.483 236.99 333.846 232.21C333.791 231.801 333.747 231.388 333.711 230.971C326.96 236.522 319.164 242.643 318.977 243.867C318.666 245.921 323.92 268.647 323.92 268.647C322.614 271.647 316.947 271.015 316.947 271.015C311.634 267.225 303.823 245.76 304.452 241.006C305.078 236.252 324.443 209.148 329.13 202.673C333.762 196.274 350.665 196.431 351.071 196.435H351.075C351.078 196.435 351.078 196.435 351.078 196.435C364.52 204.496 365.731 197.798 365.731 197.798C365.731 197.798 377.86 200.1 379.945 203.678C382.031 207.259 391.17 234.392 391.818 235.349C393.171 237.348 415.266 245.344 415.661 247.657C416.071 249.977 412.339 252.031 410.356 251.611Z" fill="#6139BC"/>
<path d="M344.094 267.781L327.312 271.373C331.49 263.063 336.982 252.714 335.782 244.404C335.332 241.302 334.325 237.629 333.839 232.831C333.791 232.367 333.711 230.975 333.711 230.975C333.711 230.975 345.594 240.315 345.803 250.427C345.916 255.671 345.001 262.533 344.094 267.781Z" fill="#4A2C76"/>
<path d="M403.2 250.558C395.992 249.44 385.942 247.474 382.572 244.404C381.658 243.571 379.532 238.982 377.318 233.719C377.318 233.719 376.543 225.26 378.756 225.578C380.97 225.892 384.226 240.896 386.553 241.843C388.635 242.694 400.138 247.105 403.2 250.558Z" fill="#4A2C76"/>
<path d="M758.251 572.81C757.238 576.231 752.548 578.507 751.911 582.688C751.604 584.727 750.843 586.313 749.873 587.402H735.271C735.418 586.598 736.058 585.735 737.957 585.319C742.011 584.435 743.544 579.523 743.291 574.963C743.185 573.051 743.233 570.874 743.328 568.988C743.456 566.379 743.672 564.325 743.672 564.325L752.292 562.301L753.199 563.463L754.07 564.581C754.066 564.577 759.265 569.39 758.251 572.81Z" fill="#4A2C76"/>
<path d="M690.251 587.398H660.708C661.377 586.616 662.512 585.86 664.432 585.545C668.98 584.807 676.853 582.173 678.61 576.366C678.668 576.179 678.719 575.989 678.76 575.796C680.154 569.591 690.295 577.696 690.295 577.696C690.295 577.696 690.328 577.945 690.372 578.368C690.551 580.115 690.947 584.855 690.251 587.398Z" fill="#4A2C76"/>
<path d="M665.64 423.011C665.64 423.011 667.18 442.207 668.991 465.28C671.453 496.622 674.409 535.124 674.702 542.418C675.207 555.084 677.238 575.343 677.238 575.343C677.238 575.343 682.052 580.156 691.689 578.127C691.689 578.127 700.276 549.207 702.731 518.607C702.768 518.106 702.808 517.602 702.845 517.094C705.128 485.945 708.677 420.35 708.677 420.35L665.64 423.011Z" fill="#6139BC"/>
<path d="M665.64 423.011C665.64 423.011 667.18 442.207 668.991 465.28L702.735 518.607C702.772 518.106 702.812 517.602 702.848 517.094C705.131 485.945 708.68 420.35 708.68 420.35L665.64 423.011Z" fill="#4A2C76"/>
<path d="M672.675 425.291C672.675 425.291 700.441 494.81 718.698 527.479C736.954 560.148 742.658 569.266 742.658 569.266C742.658 569.266 753.118 565.089 754.07 562.239C754.07 562.239 747.089 499.169 734.862 483.792C727.954 475.106 719.839 449.033 719.459 439.915C719.078 430.798 716.985 412.753 716.985 412.753L672.675 425.291Z" fill="#6139BC"/>
<path d="M686.915 317.983C685.678 310.704 685.642 306.388 685.642 306.388L699.727 295.049C699.204 310.642 709.207 318.137 709.207 318.137C709.207 318.137 690.434 327.367 679.583 323.947C679.587 323.947 682.257 320.538 686.915 317.983Z" fill="#E2A188"/>
<path d="M682.323 306.129C682.323 306.129 700.243 309.103 701.926 297.929C703.609 286.754 707.056 279.61 695.685 277.238C684.314 274.866 681.445 278.798 679.974 282.391C678.504 285.983 677.706 305.069 682.323 306.129Z" fill="#F2AC8C"/>
<path d="M619.38 329.165L615.567 326.805C615.567 326.805 610.811 319.792 602.685 324.148C602.685 324.148 599.465 326.198 601.624 327.916C603.783 329.633 603.205 328.661 606.194 331.15C609.186 333.635 613.057 334.523 615.556 333.152L618.761 332.849L619.38 329.165Z" fill="#A16D3C"/>
<path d="M614.85 329.903C615.831 326.834 616.299 326.56 616.299 326.56C616.299 326.56 647.152 330.203 650.065 330.415C652.973 330.631 693.369 322.317 693.369 322.317L712.441 345.452C712.441 345.452 656.204 347.568 648.843 346.881C636.678 345.741 614.623 334.431 614.623 334.431C614.623 334.431 614.082 332.315 614.85 329.903Z" fill="#FF4A1E"/>
<path d="M719.1 416.305C719.155 417.5 716.693 418.808 715.621 419.291C707.568 422.897 700.064 425.404 691.591 426.219C681.537 427.25 669.657 424.991 665.585 425.046C665.149 425.046 664.769 424.885 664.443 424.615C664.173 424.396 663.953 412.132 664.173 396.667C664.173 396.071 664.173 395.417 664.227 394.818V394.602C664.242 392.991 664.268 391.354 664.304 389.702C664.407 385.182 664.575 380.541 664.773 375.929C665.065 369.132 665.471 362.452 666.031 356.532C666.617 350.349 667.359 344.996 668.307 341.199C670.48 332.461 675.478 326.706 680.044 322.474L683.79 319.167C687.537 319.927 691.507 319.708 695.473 317.757C699.764 315.641 704.436 313.361 705.197 313.905C710.989 318.228 714.889 328.047 716.887 340.523C717.962 347.239 718.486 354.72 718.46 362.536C718.449 365.533 718.354 368.577 718.182 371.646C717.216 388.123 718.207 402.412 718.775 410.714C718.932 413.1 719.064 414.997 719.1 416.305Z" fill="#FF7042"/>
<path d="M623.832 263.977L510.498 245.998C505.679 245.234 501.153 248.515 500.385 253.328L495.369 284.879C495.138 286.341 495.508 290.448 495.508 290.448L499.595 291.055C499.825 291.106 500.063 291.143 500.301 291.161C501.04 291.219 501.812 291.128 502.58 290.85C506.338 289.491 510.501 289.078 514.734 289.853C526.665 292.038 535.011 303.154 533.741 315.202C532.329 328.603 519.999 337.921 506.846 335.834C501.9 335.049 497.56 332.765 494.227 329.52C493.58 328.891 492.804 328.559 492.018 328.478L487.744 327.839L482.421 366.326C481.667 371.073 484.905 375.531 489.658 376.283L522.033 381.418C525.03 381.893 526.475 385.35 524.711 387.813C522.67 390.663 521.243 394.018 520.658 397.712C518.345 412.245 530.006 425.77 545.716 424.644C553.626 424.078 562.557 417.453 565.425 410.067C567.543 404.615 567.543 399.083 565.952 394.186C565.041 391.387 567.43 388.617 570.342 389.081L602.919 394.248C607.668 395.001 612.132 391.767 612.885 387.02L630.904 273.697C631.636 269.067 628.471 264.711 623.832 263.977Z" fill="#4A2C76"/>
<path d="M705.603 340.187C705.603 340.187 696.918 380.68 664.301 389.702C664.403 385.182 664.571 380.541 664.769 375.929C665.062 369.132 665.468 362.452 666.027 356.532C666.609 356.232 667.158 355.999 667.656 355.834C678.723 352.191 705.603 340.187 705.603 340.187Z" fill="#FF4A1E"/>
<path d="M561.229 409.439C563.347 403.987 563.347 398.454 561.755 393.557C560.844 390.758 563.234 387.992 566.146 388.452L598.723 393.619C603.472 394.372 607.935 391.138 608.689 386.391L626.708 273.069C627.443 268.431 624.278 264.079 619.639 263.341L506.305 245.362C501.486 244.598 496.96 247.88 496.192 252.692L491.176 284.243C490.529 288.325 494.498 291.621 498.387 290.214C502.145 288.855 506.308 288.442 510.541 289.217C522.472 291.402 530.818 302.522 529.548 314.566C528.136 327.967 515.806 337.285 502.653 335.198C497.703 334.413 493.368 332.129 490.035 328.884C487.869 326.775 484.225 327.974 483.749 330.96L478.228 365.686C477.474 370.433 480.716 374.891 485.465 375.644L517.84 380.778C520.837 381.253 522.282 384.71 520.519 387.173C518.477 390.024 517.05 393.374 516.461 397.073C514.149 411.606 525.809 425.13 541.519 424.005C549.433 423.449 558.364 416.824 561.229 409.439Z" fill="#744DA5"/>
<path d="M619.511 355.275L614.85 354.504C614.85 354.504 609.538 346.826 600.278 351.135C600.278 351.135 596.604 353.185 599.034 355.107C601.463 357.029 600.815 355.969 604.178 358.747C607.54 361.524 611.919 362.631 614.766 361.275L618.399 361.085L619.511 355.275Z" fill="#F2AC8C"/>
<path d="M615.951 357.639C616.101 354.215 617.927 353.85 617.927 353.85C617.927 353.85 653.226 351.518 656.27 350.926C659.314 350.338 687.431 327.071 687.431 327.071C687.431 327.071 698.304 317.311 705.922 320.603C712.54 323.465 714.615 329.11 714.948 334.303C715.343 340.49 711.852 346.275 706.225 348.898C693.599 354.789 668.347 366.351 662.599 367.349C649.801 369.571 616.903 362.452 616.903 362.452C616.903 362.452 615.834 360.329 615.951 357.639Z" fill="#FF7042"/>
<path d="M679.974 282.391C679.974 282.391 672.701 277.004 677.446 268.632C677.446 268.632 683.168 270.529 691.298 268.632C699.428 266.736 706.701 269.422 707.649 272.265C707.649 272.265 710.81 273.529 711.128 278.265C711.443 283.005 701.934 297.925 701.934 297.925C701.934 297.925 699.903 295.4 700.456 293.66C701.008 291.921 702.75 288.055 700.613 288.055C698.48 288.055 697.767 291.212 696.896 289.951C696.025 288.687 697.609 283.399 695.077 282.529C692.542 281.66 682.821 283.988 679.974 282.391Z" fill="#4A2C76"/>
<path d="M432.751 583.364L400.712 438.077H409.529C411.618 438.077 413.331 436.371 413.331 434.281V429.373C413.331 427.286 411.622 425.576 409.529 425.576H297.666C295.576 425.576 293.864 427.283 293.864 429.373V434.281C293.864 436.367 295.573 438.077 297.666 438.077H309.018L276.979 583.364C276.548 585.319 277.792 587.267 279.742 587.698C281.692 588.129 283.638 586.887 284.07 584.932L316.453 438.077H393.278L425.66 584.932C426.092 586.887 428.039 588.129 429.989 587.698C431.939 587.27 433.183 585.319 432.751 583.364Z" fill="#EE8914"/>
<path d="M645.202 494.393C633.345 483.021 590.655 554.766 590.655 554.766C590.655 554.766 657.064 505.765 645.202 494.393Z" fill="#4042E2"/>
<path d="M643.779 527.556C633.282 523.361 599.732 558.69 592.177 566.847C586.397 566.079 580.056 565.582 573.105 565.458C519.981 564.512 495.881 588.542 495.881 588.542L644.076 589.046C644.076 589.046 630.948 572.397 593.707 567.055C602.806 562.765 629.719 550.26 639.51 547.859C651.371 544.947 655.641 532.295 643.779 527.556Z" fill="#4042E2"/>
<path d="M601.983 455.552H569.998C565.861 455.552 563.226 459.985 565.228 463.602C567.159 467.096 560.362 497.372 546.034 498.161C532.563 498.903 521.415 488.166 521.415 474.865C521.415 469.862 522.992 465.225 525.677 461.424C527.423 458.954 525.663 455.548 522.637 455.548H487.433C482.622 455.548 478.722 459.444 478.722 464.249C478.722 464.249 475.532 501.991 472.817 500.638C470.022 499.243 466.905 498.391 463.612 498.223H463.579C463.184 498.205 462.789 498.19 462.393 498.19C461.995 498.19 456.199 498.091 456.199 498.091L455.321 544.731L460.352 544.786C465.137 544.643 469.29 544.197 472.985 542.315C475.612 540.978 478.722 542.9 478.722 545.845V578.792C478.722 583.598 482.622 587.49 487.43 587.49H602.312C607.01 587.49 610.822 583.685 610.822 578.99V464.377C610.815 459.502 606.86 455.552 601.983 455.552Z" fill="#FF4A1E"/>
<path d="M450.997 544.194C456.722 545.425 462.192 544.559 466.784 542.22C469.411 540.883 472.521 542.805 472.521 545.75V578.697C472.521 583.503 476.421 587.395 481.228 587.395H596.11C600.808 587.395 604.62 583.59 604.62 578.895V464.278C604.62 459.404 600.665 455.453 595.785 455.453H563.801C559.663 455.453 557.029 459.886 559.03 463.504C560.962 466.997 562.023 471.039 561.92 475.336C561.631 487.446 551.947 497.423 539.833 498.062C526.362 498.771 515.214 488.068 515.214 474.766C515.214 469.763 516.79 465.126 519.476 461.326C521.221 458.855 519.461 455.45 516.436 455.45H481.232C476.421 455.45 472.521 459.345 472.521 464.15V496.893C472.521 499.922 469.33 501.892 466.616 500.536C463.476 498.968 459.938 498.088 456.192 498.088C441.462 498.088 429.915 511.711 433.494 527.03C435.294 534.751 443.248 542.524 450.997 544.194Z" fill="url(#paint1_linear)"/>
<path d="M118.373 588.038L139.018 588.188C139.018 588.188 138.301 583.196 124.402 581.909C119.013 566.96 103.185 526.745 89.4398 528.645C75.8661 530.523 108.011 567.42 121.087 581.763C119.236 581.767 117.513 581.917 115.921 582.173C112.771 575.909 106.526 567.055 96.501 567.457C85.8324 567.884 100.368 577.616 110.375 583.59C105.307 585.407 102.571 587.917 102.571 587.917L118.142 588.03C118.325 588.129 118.424 588.184 118.424 588.184C118.424 588.184 118.405 588.136 118.373 588.038Z" fill="#7C409C"/>
<path d="M192.142 421.392L195.197 423.869C195.197 423.869 203.554 420.877 205.441 430.794C205.441 430.794 205.943 435.022 203.261 435.03C200.579 435.037 201.688 434.569 197.89 434.679C194.092 434.788 190.946 432.79 190.39 429.713L188.575 427.107L192.142 421.392Z" fill="#F2AC8C"/>
<path d="M191.795 426.712C194.231 424.169 194.034 422.291 194.034 422.291C194.034 422.291 165.811 399.21 162.95 397.332C161 396.049 140.215 377.647 130.497 366.424C125.679 360.859 119.708 363.018 112.877 364.977L107.254 366.589C100.463 368.536 98.6962 378.023 104.268 382.635C119.964 395.618 146.072 410.224 150.957 413.29C163.085 420.909 186.823 429.965 186.823 429.965C186.823 429.965 189.702 428.894 191.795 426.712Z" fill="#1E3D70"/>
<path d="M224.825 568.268C224.825 568.268 231.674 573.395 242.171 570.684C242.171 570.684 250.633 568.758 252.488 572.971C252.488 572.971 239.511 579.556 236.226 581.358C233.752 582.713 231.169 584.858 229.344 586.514C227.898 587.826 225.648 587.647 224.415 586.134C223.845 585.432 223.19 584.599 222.476 583.627C220.475 580.919 215.814 572.171 215.814 572.171L224.825 568.268Z" fill="#EAEAEA"/>
<path d="M228.023 565.9C228.023 565.9 223.852 575.504 214.226 573.739C214.226 573.739 194.583 557.535 181.104 540.7C176.728 535.233 173 529.701 170.812 524.636C161.878 503.971 137.76 473.151 122.423 457.533L160.787 443.668C160.787 443.668 173.077 468.36 189.428 498.687C201.212 520.54 215.104 545.319 228.023 565.9Z" fill="#FF7042"/>
<path d="M189.431 498.691L181.108 540.704C176.732 535.237 173.004 529.705 170.816 524.64C161.881 503.975 137.763 473.155 122.426 457.536L160.791 443.672C160.791 443.672 173.081 468.36 189.431 498.691Z" fill="#FF4A1E"/>
<path d="M157.97 573.717C157.97 573.717 157.553 581.38 166.854 582.403C166.854 582.403 172.17 582.432 172.184 587.31L145.147 587.395C145.147 587.395 144.36 585.425 144.17 581.211C144.023 577.974 147.309 569.514 147.309 569.514L157.97 573.717Z" fill="#EAEAEA"/>
<path d="M148.209 443.672C148.209 443.672 165.299 462.429 176.15 496.224C182.052 514.612 165.332 560.839 162.072 576.899C162.072 576.899 150.854 577.849 143.182 574.889C143.182 574.889 142.6 541.716 147.086 516.147C149.596 501.837 124.581 485.543 113.653 459.685C106.218 442.093 115.263 442.393 126.381 441.969L148.209 443.672Z" fill="#FF7042"/>
<path d="M128.478 359.985C118.969 365.35 99.5011 360.402 99.5011 360.402C99.5011 360.402 107.407 351.376 103.815 336.836L111.282 340.621L119.302 344.689C119.302 344.689 119.821 347.258 120.18 351.869C120.271 353.057 120.356 354.383 120.41 355.834C125.291 357.311 128.478 359.985 128.478 359.985Z" fill="#FFB792"/>
<path d="M163.345 442.703C163.345 444.373 161.42 445.17 161.011 445.254C157.176 445.956 146.467 450.114 136.82 451.068C128.697 451.92 121.153 451.112 112.87 449.449C111.772 449.23 109.197 448.536 109.014 447.487C108.783 446.34 77.0552 382.879 101.722 355.619C102.3 354.979 107.17 356.13 111.622 357.186C115.735 358.162 119.507 357.617 122.876 356.269L127.051 358.462C132.18 361.316 141.883 371.456 143.017 379.412C143.595 383.457 145.911 386.453 146.581 390.013C146.83 391.328 147.086 392.614 147.342 393.868C147.847 396.327 148.37 398.666 148.904 400.891C150.353 406.91 151.886 412.092 153.39 416.565C154.988 421.315 156.558 425.269 157.963 428.576C159.781 432.863 161.318 436.067 162.28 438.523C162.957 440.248 163.345 441.604 163.345 442.703Z" fill="#EAEAEA"/>
<path d="M162.28 438.523C117.487 417.445 101.974 376.971 101.974 376.971C101.974 376.971 138.367 390.378 147.342 393.872C147.847 396.331 148.37 398.67 148.904 400.895C150.353 406.914 151.886 412.095 153.39 416.568C154.988 421.319 156.558 425.273 157.963 428.58C159.781 432.863 161.318 436.067 162.28 438.523Z" fill="#C8D1CE"/>
<path d="M288.801 393.696L279.208 363.311C278.275 360.358 275.22 358.962 272.549 359.715H272.542C272.399 359.755 272.26 359.803 272.121 359.858L268.755 360.979C268.755 360.979 263.49 366.399 259.707 367.491C248.087 370.85 237.056 364.663 232.816 353.346C228.1 340.76 233.569 326.936 246.239 322.949C250.575 321.583 259.103 324.13 259.103 324.13L262.528 322.993C264.386 322.427 265.663 320.424 265.001 318.319L254.442 284.876C252.997 280.304 248.12 277.768 243.543 279.208L212.36 289.03C209.473 289.94 206.642 287.499 207.117 284.514C207.666 281.064 207.446 277.435 206.32 273.876C201.9 259.88 185.465 252.999 171.95 260.991C165.145 265.015 160.129 274.903 160.864 282.767C161.409 288.574 163.872 293.511 167.479 297.172C169.539 299.266 168.643 302.8 165.84 303.68L134.463 313.562C129.89 315.001 127.351 319.876 128.792 324.444L163.253 433.583C164.662 438.048 169.429 440.526 173.9 439.119L283.053 404.736C287.688 403.274 290.264 398.33 288.801 393.696Z" fill="#4A2C76"/>
<path d="M157.542 283.867C158.087 289.677 160.55 294.611 164.157 298.272C166.217 300.366 165.321 303.9 162.518 304.78L131.145 314.661C126.572 316.101 124.033 320.976 125.474 325.544L159.935 434.682C161.344 439.148 166.111 441.626 170.582 440.219L279.734 405.836C284.377 404.374 286.953 399.43 285.49 394.796L275.897 364.411C274.656 360.479 269.644 359.306 266.797 362.291C264.05 365.175 260.519 367.396 256.396 368.588C244.776 371.946 232.369 365.737 228.129 354.42C223.413 341.835 230.262 328.032 242.928 324.042C247.696 322.54 252.583 322.65 257.007 324.06C259.883 324.978 262.597 322.284 261.69 319.412L251.131 285.964C249.689 281.393 244.809 278.857 240.232 280.297L209.049 290.119C206.162 291.029 203.33 288.588 203.806 285.603C204.355 282.153 204.135 278.524 203.009 274.965C198.589 260.969 182.154 254.088 168.639 262.08C161.823 266.114 156.807 275.999 157.542 283.867Z" fill="#744DA5"/>
<path d="M188.487 426.307L192.358 427.725C192.358 427.725 200.111 422.251 204.937 431.152C204.937 431.152 206.682 435.041 203.92 435.885C201.157 436.729 202.16 435.932 198.278 437.226C194.392 438.519 190.569 437.588 189.102 434.818L186.471 432.888L188.487 426.307Z" fill="#FFB792"/>
<path d="M191.67 431.774C193.101 428.043 193.756 426.354 193.756 426.354C193.756 426.354 164.508 402.543 161.53 400.5C159.5 399.108 139.282 384.016 129.425 372.253C124.537 366.417 116.829 363.749 109.372 365.313L103.233 366.6C95.8205 368.153 93.4095 377.526 99.1609 382.448C115.358 396.316 142.673 412.402 147.77 415.746C160.414 424.052 188.381 435.691 188.381 435.691C188.381 435.691 190.547 434.704 191.67 431.774Z" fill="#EAEAEA"/>
<path d="M120.18 351.869C110.828 352.395 104.748 344.681 104.748 344.681C104.748 344.681 108.977 342.343 111.282 340.621L119.302 344.689C119.302 344.692 119.818 347.258 120.18 351.869Z" fill="#F2AC8C"/>
<path d="M124.164 342.28C124.164 342.28 109.994 352.436 103.8 343.527C97.606 334.617 91.6021 329.925 100.387 323.066C109.171 316.207 113.313 318.374 116.104 320.844C118.896 323.315 127.688 339.408 124.164 342.28Z" fill="#FFB792"/>
<path d="M117.601 312.798C117.092 309.374 115.951 306.962 115.951 306.962C115.951 306.962 115.061 310.642 108.329 310.134C101.598 309.626 90.9289 310.795 87.3726 318.455C87.1458 318.941 86.9446 319.445 86.7653 319.957C86.1214 318.257 85.9677 315.714 85.9677 315.714C84.6872 319.01 85.9677 323.139 85.9677 323.139C85.9494 323.26 85.9311 323.381 85.9165 323.501C84.4311 324.755 83.1835 328.654 83.1835 328.654C83.6335 327.568 84.7238 326.856 85.7006 326.421C85.6714 332.381 88.0897 338.21 92.3375 339.945C98.5499 342.481 98.5023 340.548 104.748 344.685C104.748 344.685 106.423 342.609 105.282 341.213C104.14 339.818 99.8194 337.789 102.234 335.758C104.649 333.73 105.534 336.01 106.423 334.617C107.312 333.222 102.867 329.162 108.582 325.358C114.297 321.55 118.109 316.222 117.601 312.798Z" fill="#4A2C76"/>
<path d="M482.34 587.449C482.34 587.449 475.177 576.87 463.963 577.725C460.557 577.985 455.018 578.814 448.586 579.699C443.734 562.79 430.362 522.597 412.328 520.335C393.91 518.026 429.952 562.725 444.693 580.225C442.004 580.579 439.212 580.923 436.395 581.23C428.591 572.905 414.992 560.576 403.635 561.526C392.249 562.476 413.565 574.232 428.95 581.92C419.51 582.626 410.561 582.549 405.091 580.437C391.697 575.266 379.385 587.453 379.385 587.453H482.34V587.449Z" fill="#EAEAEA"/>
<defs>
<linearGradient id="paint0_linear" x1="293.877" y1="329.371" x2="474.162" y2="329.371" gradientUnits="userSpaceOnUse">
<stop stop-color="#FED747"/>
<stop offset="1" stop-color="#F94E43"/>
</linearGradient>
<linearGradient id="paint1_linear" x1="432.838" y1="521.425" x2="604.622" y2="521.425" gradientUnits="userSpaceOnUse">
<stop stop-color="#FED747"/>
<stop offset="1" stop-color="#F94E43"/>
</linearGradient>
</defs>
</svg>
