<svg width="166" height="387" viewBox="0 0 166 387" fill="none" xmlns="http://www.w3.org/2000/svg">
<path d="M147.15 140.996L156.704 141.594C161.428 141.891 165.091 145.841 165.021 150.573L161.685 377.219C161.608 382.379 157.34 386.492 152.176 386.381L86.5449 384.98L147.15 140.996Z" fill="#62D7A4"/>
<path d="M32.5232 141.182L153.689 135.33C156.195 135.209 158.272 137.25 158.192 139.757L150.719 373.304C150.56 378.288 146.365 382.186 141.38 381.985L56.2163 378.564L32.5232 141.182Z" fill="#91B3FA"/>
<path d="M38.9924 146.094L145.558 132.508C148.296 132.159 150.705 134.327 150.646 137.084L145.465 372.639C145.392 375.96 142.727 378.644 139.404 378.741L61.0034 381.03L38.9924 146.094Z" fill="url(#paint0_linear)"/>
<path d="M10.983 134.386L127.818 127.119C133.641 126.756 138.563 131.377 138.563 137.208V377.748C138.563 382.625 134.606 386.582 129.722 386.582H22.004C16.9227 386.582 12.7275 382.611 12.4541 377.537L0.0172831 146.696C-0.328855 140.28 4.56556 134.784 10.983 134.386Z" fill="url(#paint1_linear)"/>
<path d="M144.35 221.848H132.779C130.958 221.848 129.483 220.374 129.483 218.555V153.357C129.483 151.538 130.958 150.064 132.779 150.064H144.35C146.171 150.064 147.645 151.538 147.645 153.357V218.555C147.645 220.374 146.171 221.848 144.35 221.848Z" fill="url(#paint2_linear)"/>
<path d="M141.484 97.2111H138.279V131.861H141.484V97.2111Z" fill="url(#paint3_linear)"/>
<path d="M153.924 132.529H125.839C125.839 131.377 126.773 130.443 127.926 130.443H151.837C152.99 130.443 153.924 131.377 153.924 132.529Z" fill="url(#paint4_linear)"/>
<path d="M158.092 96.0074C158.092 97.9028 156.541 99.4524 154.644 99.4524H126.23C124.333 99.4524 122.782 97.9028 122.782 96.0074V92.8911C122.782 90.9957 124.333 89.4462 126.23 89.4462H154.644C156.541 89.4462 158.092 90.9957 158.092 92.8911V96.0074Z" fill="url(#paint5_linear)"/>
<path d="M116.209 74.1066C116.209 74.1066 111.443 74.8433 106.088 78.4231C105.243 78.9869 104.783 79.9692 104.911 80.9722C105.551 86.0497 108.189 102.482 116.887 118.534C117.344 119.382 117.479 120.368 117.275 121.308L115.762 128.337L112.959 130.962H120.176L124.98 117.967L122.924 117.317C121.332 116.812 120.238 115.349 120.21 113.678L119.968 99.7395C120.172 93.5275 116.157 89.2421 116.157 89.2421L127.684 88.6818L116.209 74.1066Z" fill="url(#paint6_linear)"/>
<path d="M110.141 132.228C109.484 133.089 117.216 134.223 121.121 132.342C121.121 132.342 126.534 122.927 126.534 118.081C126.534 118.081 126.105 117.092 122.924 117.317C122.924 117.317 121.107 128.465 119.186 129.713C117.265 130.962 113.814 129.841 113.814 129.841C113.814 129.841 111.111 130.958 110.141 132.228Z" fill="url(#paint7_linear)"/>
<path d="M126.23 89.4462C126.167 89.339 113.821 87.9624 113.821 87.9624C113.821 87.9624 114.226 91.7152 112.962 96.8791C111.699 102.043 93.5681 124.421 93.5681 124.421L95.4684 130.443C89.591 132.491 83.807 132.816 78.12 131.488L89.9026 124.421C89.9026 124.421 100.931 86.8729 107.684 80.1733L120.062 75.8948L126.23 89.4462Z" fill="url(#paint8_linear)"/>
<path d="M153.924 67.5972C153.924 67.5972 161.041 78.1706 161.622 82.9956C162.207 87.8206 159.674 89.7782 152.208 90.1033C144.741 90.425 124.814 90.4216 124.814 90.4216L107.805 75.8948C107.805 75.8948 120.2 71.4744 123.423 70.2258C126.645 68.9772 153.924 67.5972 153.924 67.5972Z" fill="url(#paint9_linear)"/>
<path d="M94.7486 128.416C94.7486 128.416 96.7942 130.398 95.4131 132.601C95.4131 132.601 79.2 135.472 74.7971 134.171C74.7971 134.171 75.7109 132.086 80.6676 129.713L80.3007 129.993C79.8369 130.349 80.1104 131.086 80.6919 131.055C83.9594 130.868 90.7195 130.27 94.7486 128.416Z" fill="url(#paint10_linear)"/>
<path d="M139.546 8.1929C140.307 9.01955 144.495 9.91883 143.997 12.4091C143.931 12.7412 144.243 13.0179 144.568 12.9314C146.237 12.4818 149.926 11.9145 152.214 14.7784C154.232 17.3067 152.723 19.6898 151.494 21.0007C151.197 21.3155 151.446 21.8308 151.879 21.7755C154.949 21.3881 161.619 21.2947 162.709 27.5412C163.727 33.3658 159.67 35.0052 157.264 35.4687C156.856 35.5483 156.763 36.0809 157.112 36.3023C158.313 37.0632 159.701 38.6335 159.141 41.736C158.261 46.599 148.718 46.2013 147.604 46.1356C147.535 46.1321 147.465 46.1113 147.406 46.0768L132.124 37.3676C132.007 37.2984 131.924 37.1808 131.899 37.0459L128.815 19.2437C128.791 19.0984 128.836 18.9531 128.937 18.8459L131.951 8.26207C132.069 8.14447 134.648 2.87332 139.546 8.1929Z" fill="url(#paint11_linear)"/>
<path d="M134.682 66.1999C134.682 66.1999 126.396 58.3173 122.318 53.0946C120.114 50.2722 119.421 46.5575 120.442 43.123C122.305 36.8557 125.614 30.3636 125.915 29.3502C126.379 27.8006 135.669 27.8664 135.669 27.8664C135.669 27.8664 153.948 39.723 161.131 59.8046L153.066 62.3157C153.066 62.3157 148.293 54.3155 143.575 49.2277C143.575 49.2277 151.737 60.0017 152.024 64.4117L134.682 66.1999Z" fill="url(#paint12_linear)"/>
<path d="M124.79 20.6963C124.887 21.018 127.313 29.0492 127.5 29.2187C127.69 29.3847 132.817 29.6614 135.233 28.0116L131.096 18.0988L124.79 20.6963Z" fill="url(#paint13_linear)"/>
<path d="M117.711 8.16521C117.711 8.16521 115.814 12.5198 118.023 19.1468C120.231 25.7738 123.852 26.3583 126.15 24.7223C128.448 23.0898 131.429 20.1671 131.809 14.1662C132.194 8.16521 120.321 2.65539 117.711 8.16521Z" fill="url(#paint14_linear)"/>
<path d="M127.334 13.7684C127.334 13.7684 123.343 4.79639 117.327 10.3719L116.86 12.6789C116.86 12.6789 111.142 11.0395 113.031 5.86168C114.921 0.683912 120.505 -1.83753 126.617 1.53131C132.73 4.90015 136.063 7.87815 135.728 12.5924C135.392 17.3067 131.858 15.688 131.858 15.688C131.858 15.688 131.183 12.2189 129.521 11.5998C127.86 10.9807 127.891 13.6059 127.891 13.6059L127.334 13.7684Z" fill="url(#paint15_linear)"/>
<path d="M128.795 15.2108C128.795 15.2108 126.718 10.6106 129.639 10.4481C132.561 10.2855 131.366 14.8822 130.778 16.5597L128.795 15.2108Z" fill="url(#paint16_linear)"/>
<path d="M117.801 66.7843L123.89 60.9217L132.312 64.4773C132.312 64.4773 140.695 65.7744 145.492 64.4773C150.29 63.1803 150.29 63.1803 150.29 63.1803L161.131 59.808L162.834 64.6157C163.267 65.8366 162.831 67.1925 161.775 67.943C160.837 68.6105 159.736 69.3403 159.037 69.6482C157.611 70.2707 123.841 69.2158 123.841 69.2158L117.801 66.7843Z" fill="url(#paint17_linear)"/>
<path d="M140.84 69.548C140.813 69.548 140.785 69.5514 140.761 69.5514L105.448 69.5134C104.575 69.5134 103.869 68.8043 103.869 67.9327C103.869 67.0611 104.582 66.3382 105.451 66.3555L140.764 66.3936C141.636 66.3936 142.343 67.1026 142.343 67.9742C142.339 68.8182 141.674 69.5065 140.84 69.548Z" fill="url(#paint18_linear)"/>
<path d="M73.7032 37.5128H103.111C105.281 37.5128 107.254 38.7649 108.182 40.726L121.778 69.5306H85.2331C83.8347 69.5306 82.5782 68.6763 82.066 67.3793L71.5226 40.7226C70.9099 39.1799 72.0452 37.5128 73.7032 37.5128Z" fill="url(#paint19_linear)"/>
<path d="M94.4197 52.2818C95.0566 54.2602 94.5859 56.1833 93.3675 56.5741C92.1491 56.965 90.6468 55.6783 90.0064 53.6999C89.3695 51.7215 89.8403 49.7984 91.0587 49.4076C92.2806 49.0167 93.7828 50.3034 94.4197 52.2818Z" fill="#91B3FA"/>
<path d="M52.928 70.7689C52.793 71.3292 39.8232 119.935 36.5349 132.259C36.1576 133.68 37.2134 135.074 38.6672 135.074C39.6813 135.074 40.564 134.376 40.8097 133.379L55.2056 75.0509L52.928 70.7689Z" fill="#7D97F4"/>
<path d="M60.0273 70.6271C60.1623 71.1909 73.1321 119.901 76.4204 132.252C76.7977 133.673 75.742 135.074 74.2882 135.074C73.274 135.074 72.3914 134.376 72.1456 133.376L57.7498 74.9194L60.0273 70.6271Z" fill="#7D97F4"/>
<path d="M60.5708 69.1813H52.4919V75.663C52.4919 76.5934 53.2396 77.3509 54.1603 77.3509H55.268V91.9088C55.268 92.6144 55.8322 93.1851 56.5314 93.1851C57.2271 93.1851 57.7948 92.6144 57.7948 91.9088V77.3509H58.3555C59.5774 77.3509 60.5708 76.3478 60.5708 75.1131V69.1813Z" fill="#7D97F4"/>
<path d="M117.701 70.7689C117.566 71.3292 104.596 119.935 101.308 132.259C100.931 133.68 101.986 135.074 103.44 135.074C104.454 135.074 105.337 134.376 105.583 133.379L119.979 75.0509L117.701 70.7689Z" fill="#7D97F4"/>
<path d="M124.804 70.7689C124.939 71.3292 137.908 119.935 141.197 132.259C141.574 133.68 140.518 135.074 139.065 135.074C138.05 135.074 137.168 134.376 136.922 133.379L122.526 75.0509L124.804 70.7689Z" fill="#7D97F4"/>
<path d="M125.344 69.1813H117.265V75.663C117.265 76.5934 118.012 77.3509 118.933 77.3509H120.041V91.9088C120.041 92.6144 120.605 93.1851 121.304 93.1851C122 93.1851 122.568 92.6144 122.568 91.9088V77.3509H123.128C124.35 77.3509 125.344 76.3478 125.344 75.1131V69.1813Z" fill="#7D97F4"/>
<path d="M32.0386 67.6249H145.614C146.244 67.6249 146.794 68.0572 146.953 68.6729L147.583 71.139C147.808 72.0279 147.144 72.8926 146.237 72.8857L31.4848 72.6159C30.5883 72.609 29.9341 71.7546 30.1522 70.8761L30.6991 68.6763C30.8514 68.0607 31.4052 67.6249 32.0386 67.6249Z" fill="#7D97F4"/>
<defs>
<linearGradient id="paint0_linear" x1="38.9924" y1="256.75" x2="150.648" y2="256.75" gradientUnits="userSpaceOnUse">
<stop stop-color="#DAE3FE"/>
<stop offset="1" stop-color="#E9EFFD"/>
</linearGradient>
<linearGradient id="paint1_linear" x1="167.804" y1="229.025" x2="28.6762" y2="274.05" gradientUnits="userSpaceOnUse">
<stop stop-color="#62D7A4"/>
<stop offset="1" stop-color="#62D7A4"/>
</linearGradient>
<linearGradient id="paint2_linear" x1="152.417" y1="181.481" x2="13.2899" y2="226.506" gradientUnits="userSpaceOnUse">
<stop stop-color="#62D7A4"/>
<stop offset="1" stop-color="#FF928E"/>
</linearGradient>
<linearGradient id="paint3_linear" x1="137.378" y1="130.27" x2="144.298" y2="86.7056" gradientUnits="userSpaceOnUse">
<stop stop-color="#4042E2"/>
<stop offset="1" stop-color="#4F52FF"/>
</linearGradient>
<linearGradient id="paint4_linear" x1="140.157" y1="130.711" x2="147.078" y2="87.1471" gradientUnits="userSpaceOnUse">
<stop stop-color="#4042E2"/>
<stop offset="1" stop-color="#4F52FF"/>
</linearGradient>
<linearGradient id="paint5_linear" x1="134.803" y1="129.861" x2="141.723" y2="86.2965" gradientUnits="userSpaceOnUse">
<stop stop-color="#4042E2"/>
<stop offset="1" stop-color="#4F52FF"/>
</linearGradient>
<linearGradient id="paint6_linear" x1="117.734" y1="102.856" x2="121.19" y2="146.264" gradientUnits="userSpaceOnUse">
<stop stop-color="#FF928E"/>
<stop offset="1" stop-color="#FEB3B1"/>
</linearGradient>
<linearGradient id="paint7_linear" x1="118.838" y1="117.379" x2="115.489" y2="168.76" gradientUnits="userSpaceOnUse">
<stop stop-color="#09005D"/>
<stop offset="1" stop-color="#1A0F91"/>
</linearGradient>
<linearGradient id="paint8_linear" x1="79.4807" y1="121.617" x2="117.882" y2="93.2277" gradientUnits="userSpaceOnUse">
<stop stop-color="#FF928E"/>
<stop offset="1" stop-color="#FEB3B1"/>
</linearGradient>
<linearGradient id="paint9_linear" x1="107.804" y1="79.0102" x2="161.703" y2="79.0102" gradientUnits="userSpaceOnUse">
<stop stop-color="#09005D"/>
<stop offset="1" stop-color="#1A0F91"/>
</linearGradient>
<linearGradient id="paint10_linear" x1="86.4768" y1="115.269" x2="83.1284" y2="166.652" gradientUnits="userSpaceOnUse">
<stop stop-color="#09005D"/>
<stop offset="1" stop-color="#1A0F91"/>
</linearGradient>
<linearGradient id="paint11_linear" x1="160.479" y1="10.7113" x2="142.068" y2="28.7352" gradientUnits="userSpaceOnUse">
<stop stop-color="#09005D"/>
<stop offset="1" stop-color="#1A0F91"/>
</linearGradient>
<linearGradient id="paint12_linear" x1="131.541" y1="34.4144" x2="157.074" y2="90.0284" gradientUnits="userSpaceOnUse">
<stop stop-color="#4042E2"/>
<stop offset="1" stop-color="#4F52FF"/>
</linearGradient>
<linearGradient id="paint13_linear" x1="128.698" y1="21.8234" x2="135.339" y2="38.7888" gradientUnits="userSpaceOnUse">
<stop stop-color="#FF928E"/>
<stop offset="1" stop-color="#FEB3B1"/>
</linearGradient>
<linearGradient id="paint14_linear" x1="128.677" y1="6.71868" x2="118.65" y2="22.6358" gradientUnits="userSpaceOnUse">
<stop stop-color="#FF928E"/>
<stop offset="1" stop-color="#FEB3B1"/>
</linearGradient>
<linearGradient id="paint15_linear" x1="124.886" y1="-9.43659" x2="123.972" y2="16.3368" gradientUnits="userSpaceOnUse">
<stop stop-color="#09005D"/>
<stop offset="1" stop-color="#1A0F91"/>
</linearGradient>
<linearGradient id="paint16_linear" x1="132.529" y1="9.14513" x2="122.501" y2="25.0621" gradientUnits="userSpaceOnUse">
<stop stop-color="#FF928E"/>
<stop offset="1" stop-color="#FEB3B1"/>
</linearGradient>
<linearGradient id="paint17_linear" x1="145.813" y1="47.5709" x2="133.542" y2="90.2917" gradientUnits="userSpaceOnUse">
<stop stop-color="#FF928E"/>
<stop offset="1" stop-color="#FEB3B1"/>
</linearGradient>
<linearGradient id="paint18_linear" x1="146.831" y1="60.173" x2="118.803" y2="69.3724" gradientUnits="userSpaceOnUse">
<stop stop-color="#020039"/>
<stop offset="1" stop-color="#090056"/>
</linearGradient>
<linearGradient id="paint19_linear" x1="108.324" y1="41.8072" x2="88.1523" y2="63.1431" gradientUnits="userSpaceOnUse">
<stop stop-color="#020039"/>
<stop offset="1" stop-color="#090056"/>
</linearGradient>
</defs>
</svg>
