<svg width="269" height="257" viewBox="0 0 269 257" fill="none" xmlns="http://www.w3.org/2000/svg">
<path d="M189.198 253.521C193.799 253.921 201.792 254.564 208.089 254.84C211.876 255.007 214.058 254.635 215.311 254.135C215.311 254.278 215.306 254.412 215.301 254.535C215.273 255.197 214.734 255.725 214.063 255.763C202.159 256.425 192.694 255.992 189.326 255.787C188.631 255.744 188.216 254.987 188.569 254.393C188.745 254.097 188.96 253.807 189.198 253.521Z" fill="url(#paint0_linear)"/>
<path d="M208.089 254.84C201.792 254.564 193.799 253.917 189.198 253.522C193.723 247.972 208.089 244.23 208.089 244.23H212.148C214.939 248.253 215.344 252.079 215.311 254.136C214.053 254.64 211.876 255.007 208.089 254.84Z" fill="url(#paint1_linear)"/>
<path d="M212.829 237.614L212.448 245.12C212.405 245.934 211.8 246.615 210.981 246.734C210.171 246.848 209.085 246.862 207.932 246.482C207.222 246.248 206.698 245.649 206.565 244.92L205.255 237.609H212.829V237.614Z" fill="url(#paint2_linear)"/>
<path d="M265.531 254.783C267.527 254.507 268.432 253.469 268.808 252.36C268.813 252.37 268.813 252.379 268.818 252.389C269.113 253.56 268.432 254.769 267.07 255.345C265.426 256.039 263.626 256.158 262.23 256.101C260.73 256.039 259.358 255.421 258.6 254.431L258.591 254.416C260.091 255.164 262.202 255.249 265.531 254.783Z" fill="url(#paint3_linear)"/>
<path d="M256.119 237.567H259.463C264.56 237.462 267.761 248.205 268.809 252.365C268.427 253.474 267.527 254.507 265.531 254.788C262.202 255.254 260.092 255.164 258.586 254.421C255.833 250.799 254.466 245.497 253.813 242.403C253.066 238.88 256.119 237.567 256.119 237.567Z" fill="url(#paint4_linear)"/>
<path d="M259.034 230.593L260.892 237.976C261.12 238.88 260.687 239.818 259.849 240.246C258.81 240.779 257.348 241.341 256 241.179C255.366 241.103 254.842 240.655 254.633 240.06L251.903 232.292L259.034 230.593Z" fill="url(#paint5_linear)"/>
<path d="M261.254 232.731C258.943 234.782 251.422 235.049 251.422 235.049C224.337 170.087 213.258 160.862 213.258 160.862C217.168 185.38 213.886 239.661 213.886 239.661C209.418 241.631 203.655 239.661 203.655 239.661C203.293 199.521 197.119 164.513 189.822 136.916C208.127 136.506 217.864 130.243 221.041 127.734C236.303 152.319 261.254 232.731 261.254 232.731Z" fill="url(#paint6_linear)"/>
<path d="M216.392 53.0289C219.855 70.3022 218.616 101.212 217.797 115.311C217.569 119.276 220.336 124.769 222.575 128.515C222.927 129.1 222.708 129.857 222.099 130.166C218.35 132.089 205.66 138.053 190.951 138.796C189.969 138.843 189.093 138.177 188.84 137.23C177.927 96.5192 165.257 70.5022 165.257 70.5022C179.252 48.1787 216.392 53.0289 216.392 53.0289Z" fill="url(#paint7_linear)"/>
<path d="M211.405 159.325C211.557 159.325 211.714 159.282 211.857 159.196C212.267 158.949 212.395 158.416 212.148 158.006C212 157.768 208.499 152.109 201.406 148.692C200.978 148.487 200.458 148.663 200.249 149.096C200.039 149.529 200.22 150.048 200.654 150.253C207.265 153.442 210.633 158.854 210.666 158.911C210.828 159.177 211.114 159.325 211.405 159.325Z" fill="url(#paint8_linear)"/>
<path d="M238.127 102.598C237.013 110.642 233.726 119.419 227.148 128.743L224.647 126.706C224.647 126.706 227.534 115.002 225.895 101.722C229.953 100.927 234.745 101.741 238.127 102.598Z" fill="url(#paint9_linear)"/>
<path d="M212.524 74.3385L216.397 53.0289C216.397 53.0289 242.257 72.7821 238.132 102.597C234.75 101.741 229.953 100.927 225.895 101.717C224.709 92.1497 221.179 81.7591 212.524 74.3385Z" fill="url(#paint10_linear)"/>
<path d="M165.257 70.5071L175.236 91.9881C173.621 104.959 166.652 110.566 159.131 112.712C158.664 106.801 157.169 102.026 155.778 98.7232C165.39 88.8132 165.257 70.5071 165.257 70.5071Z" fill="url(#paint11_linear)"/>
<path d="M155.782 98.7231C157.169 102.026 158.664 106.801 159.136 112.712C139.082 120.49 133.775 105.406 133.775 105.406L137.481 104.754C145.851 105.634 151.695 102.94 155.782 98.7231Z" fill="url(#paint12_linear)"/>
<path d="M174.455 43.9855L179.276 61.6873C179.819 63.6768 181.972 64.743 183.886 63.9767C185.954 63.1532 188.574 62.0252 190.831 60.8067C193.242 59.5073 193.994 56.4086 192.47 54.1382L182.453 39.2114L174.455 43.9855Z" fill="url(#paint13_linear)"/>
<path d="M124.582 93.5634L248.059 138.472C253.237 140.357 255.714 146.25 253.432 151.262L253.056 152.085C251.036 156.521 245.792 158.468 241.367 156.421L121.472 100.998L124.582 93.5634Z" fill="url(#paint14_linear)"/>
<path opacity="0.21" d="M67.8261 126.363C101.489 126.363 128.779 99.5846 128.779 66.5515C128.779 33.5185 101.489 6.73987 67.8261 6.73987C34.1629 6.73987 6.87347 33.5185 6.87347 66.5515C6.87347 99.5846 34.1629 126.363 67.8261 126.363Z" fill="url(#paint15_linear)"/>
<path d="M0 66.5516C0 103.307 30.3667 133.103 67.8262 133.103C105.286 133.103 135.652 103.307 135.652 66.5516C135.652 29.7964 105.286 0 67.8262 0C30.3667 0 0 29.7964 0 66.5516ZM9.96501 66.5516C9.96501 35.194 35.8732 9.77665 67.8262 9.77665C99.7839 9.77665 125.687 35.194 125.687 66.5516C125.687 97.9091 99.7791 123.326 67.8262 123.326C35.8685 123.326 9.96501 97.9044 9.96501 66.5516Z" fill="url(#paint16_linear)"/>
<path d="M130.436 74.8002C130.184 74.7669 130.003 74.5337 130.036 74.2814C130.236 72.7297 130.374 71.1495 130.451 69.5787C130.465 69.3217 130.67 69.1028 130.936 69.1361C131.194 69.1504 131.389 69.3646 131.379 69.6216C131.298 71.2161 131.16 72.8202 130.955 74.3957C130.927 74.6289 130.727 74.8002 130.493 74.8002C130.474 74.805 130.455 74.8002 130.436 74.8002ZM129.574 55.8134C128.817 51.5962 127.607 47.4504 125.968 43.4855C125.968 43.4855 125.968 43.4855 125.968 43.4808C116.332 20.1292 93.5103 5.03583 67.8261 5.03583C55.8461 5.03583 44.2043 8.36294 34.1535 14.6506C33.9344 14.7887 33.6486 14.722 33.5152 14.5031C33.3771 14.2841 33.4437 13.9985 33.6628 13.8653C43.8613 7.48237 55.6746 4.10767 67.8308 4.10767C93.8914 4.10767 117.051 19.4247 126.83 43.1285C128.493 47.1553 129.722 51.363 130.489 55.6468C130.536 55.8991 130.365 56.1418 130.112 56.1847C130.084 56.1894 130.055 56.1942 130.031 56.1942C129.808 56.1942 129.612 56.0371 129.574 55.8134Z" fill="white"/>
<path d="M163.914 30.5389C163.871 30.8436 167.934 50.7396 167.934 50.7396L179.252 48.1788L178.204 28.7492C178.204 28.7492 164.647 25.4459 163.914 30.5389Z" fill="url(#paint17_linear)"/>
<path d="M175.655 33.076L177.008 43.2619C177.027 43.3905 177.027 43.5237 177.008 43.6523C176.894 44.4519 176.298 47.1698 173.555 46.3891C171.063 45.6847 168.777 45.0754 167.2 45.5609C166.491 45.7751 166.067 46.4939 166.214 47.2221C166.586 49.0308 167.491 53.0862 168.82 56.4942C169.091 57.1844 169.849 57.5461 170.558 57.3415C172.707 56.7179 177.194 55.2709 180.538 53.2623C180.99 52.991 181.262 52.496 181.238 51.9724C181.128 49.4021 180.828 41.5865 181.081 39.397C181.319 37.3407 183.844 36.1079 184.939 35.6653C185.301 35.5225 185.582 35.2369 185.725 34.8752C186.235 33.6043 186.935 30.658 183.22 29.4537C182.443 29.2015 182.034 28.3638 182.31 27.5974C182.858 26.0695 183.091 23.7325 180.219 22.4473C177.299 21.1384 175.117 22.6948 173.94 23.9609C173.464 24.4702 172.702 24.5512 172.111 24.1751C171.773 23.9609 171.34 23.8943 170.82 24.218C170.115 24.6559 169.182 24.356 168.815 23.6135C168.115 22.1808 166.691 20.6434 163.832 21.1336C158.759 21.9999 158.188 27.6165 159.522 30.9102C160.86 34.1993 166.305 32.9475 169.039 31.291C171.116 30.0297 173.812 31.3529 174.984 32.0574C175.355 32.2668 175.598 32.6476 175.655 33.076Z" fill="url(#paint18_linear)"/>
<path d="M181.533 43.1C181.533 43.1 179.447 37.2645 181.59 35.8365C183.734 34.4086 186.906 35.1511 186.206 39.3778C185.339 44.6374 181.533 43.1 181.533 43.1Z" fill="url(#paint19_linear)"/>
<path d="M225.681 126.349L214.006 125.397L208.952 130.052C208.952 130.052 210.147 131.704 213.887 130.756C217.626 129.809 222.746 129.576 222.746 129.576C222.746 129.576 227.91 131.903 227.972 127.548L225.681 126.349Z" fill="url(#paint20_linear)"/>
<path d="M135.262 108.167C134.252 108.957 130.794 107.31 128.679 106.172C127.645 105.62 127.15 104.411 127.502 103.297C128.012 101.693 128.86 99.6227 129.908 99.3609C131.637 98.9277 139.42 104.92 135.262 108.167Z" fill="url(#paint21_linear)"/>
<path d="M245.625 154.698C245.677 154.698 245.725 154.689 245.777 154.675C250.608 153.009 251.727 150.157 251.817 148.058C251.951 144.993 250.022 142.147 247.021 140.976L232.197 135.197C231.959 135.102 231.687 135.221 231.597 135.459C231.501 135.697 231.621 135.969 231.859 136.059L246.682 141.837C249.312 142.861 251.003 145.345 250.889 148.016C250.774 150.648 248.95 152.595 245.473 153.794C245.23 153.88 245.101 154.141 245.187 154.384C245.253 154.579 245.43 154.698 245.625 154.698Z" fill="white"/>
<path d="M227.457 134.317C227.643 134.317 227.819 134.203 227.891 134.022C227.986 133.784 227.867 133.512 227.629 133.422L225.709 132.675C225.471 132.58 225.199 132.698 225.109 132.936C225.014 133.174 225.133 133.446 225.371 133.536L227.291 134.284C227.343 134.303 227.4 134.317 227.457 134.317Z" fill="white"/>
<defs>
<linearGradient id="paint0_linear" x1="215.311" y1="254.82" x2="188.437" y2="254.82" gradientUnits="userSpaceOnUse">
<stop stop-color="#4042E2"/>
<stop offset="1" stop-color="#4F52FF"/>
</linearGradient>
<linearGradient id="paint1_linear" x1="215.312" y1="249.557" x2="189.196" y2="249.557" gradientUnits="userSpaceOnUse">
<stop stop-color="#09005D"/>
<stop offset="1" stop-color="#1A0F91"/>
</linearGradient>
<linearGradient id="paint2_linear" x1="212.83" y1="242.209" x2="205.26" y2="242.209" gradientUnits="userSpaceOnUse">
<stop stop-color="#FF928E"/>
<stop offset="1" stop-color="#FEB3B1"/>
</linearGradient>
<linearGradient id="paint3_linear" x1="268.886" y1="254.241" x2="258.588" y2="254.241" gradientUnits="userSpaceOnUse">
<stop stop-color="#4042E2"/>
<stop offset="1" stop-color="#4F52FF"/>
</linearGradient>
<linearGradient id="paint4_linear" x1="268.811" y1="246.317" x2="253.695" y2="246.317" gradientUnits="userSpaceOnUse">
<stop stop-color="#09005D"/>
<stop offset="1" stop-color="#1A0F91"/>
</linearGradient>
<linearGradient id="paint5_linear" x1="260.954" y1="235.903" x2="251.907" y2="235.903" gradientUnits="userSpaceOnUse">
<stop stop-color="#FF928E"/>
<stop offset="1" stop-color="#FEB3B1"/>
</linearGradient>
<linearGradient id="paint6_linear" x1="281.909" y1="262.339" x2="163.168" y2="127.895" gradientUnits="userSpaceOnUse">
<stop stop-color="#09005D"/>
<stop offset="1" stop-color="#1A0F91"/>
</linearGradient>
<linearGradient id="paint7_linear" x1="250.357" y1="40.7644" x2="146.401" y2="149.444" gradientUnits="userSpaceOnUse">
<stop stop-color="#4042E2"/>
<stop offset="1" stop-color="#4F52FF"/>
</linearGradient>
<linearGradient id="paint8_linear" x1="230.468" y1="202.426" x2="226.138" y2="193.76" gradientUnits="userSpaceOnUse">
<stop stop-color="#4042E2"/>
<stop offset="1" stop-color="#4F52FF"/>
</linearGradient>
<linearGradient id="paint9_linear" x1="90.4891" y1="-195.817" x2="109.043" y2="-154.872" gradientUnits="userSpaceOnUse">
<stop stop-color="#FF928E"/>
<stop offset="1" stop-color="#FEB3B1"/>
</linearGradient>
<linearGradient id="paint10_linear" x1="256.825" y1="46.9513" x2="152.869" y2="155.63" gradientUnits="userSpaceOnUse">
<stop stop-color="#4042E2"/>
<stop offset="1" stop-color="#4F52FF"/>
</linearGradient>
<linearGradient id="paint11_linear" x1="230.879" y1="22.1332" x2="126.923" y2="130.812" gradientUnits="userSpaceOnUse">
<stop stop-color="#4042E2"/>
<stop offset="1" stop-color="#4F52FF"/>
</linearGradient>
<linearGradient id="paint12_linear" x1="-211.095" y1="-208.02" x2="-176.821" y2="-178.007" gradientUnits="userSpaceOnUse">
<stop stop-color="#FF928E"/>
<stop offset="1" stop-color="#FEB3B1"/>
</linearGradient>
<linearGradient id="paint13_linear" x1="190.516" y1="66.8701" x2="179.097" y2="44.9679" gradientUnits="userSpaceOnUse">
<stop stop-color="#FF928E"/>
<stop offset="1" stop-color="#FEB3B1"/>
</linearGradient>
<linearGradient id="paint14_linear" x1="254.284" y1="125.397" x2="121.471" y2="125.397" gradientUnits="userSpaceOnUse">
<stop stop-color="#020039"/>
<stop offset="1" stop-color="#090056"/>
</linearGradient>
<linearGradient id="paint15_linear" x1="128.78" y1="66.5499" x2="6.87095" y2="66.5499" gradientUnits="userSpaceOnUse">
<stop stop-color="#DAE3FE"/>
<stop offset="1" stop-color="#E9EFFD"/>
</linearGradient>
<linearGradient id="paint16_linear" x1="135.652" y1="66.5499" x2="-0.000380019" y2="66.5499" gradientUnits="userSpaceOnUse">
<stop stop-color="#020039"/>
<stop offset="1" stop-color="#090056"/>
</linearGradient>
<linearGradient id="paint17_linear" x1="196.13" y1="27.7209" x2="173.748" y2="37.729" gradientUnits="userSpaceOnUse">
<stop stop-color="#FF928E"/>
<stop offset="1" stop-color="#FEB3B1"/>
</linearGradient>
<linearGradient id="paint18_linear" x1="184.98" y1="41.2217" x2="157.418" y2="37.242" gradientUnits="userSpaceOnUse">
<stop stop-color="#09005D"/>
<stop offset="1" stop-color="#1A0F91"/>
</linearGradient>
<linearGradient id="paint19_linear" x1="198.726" y1="60.3505" x2="182.974" y2="38.6974" gradientUnits="userSpaceOnUse">
<stop stop-color="#FF928E"/>
<stop offset="1" stop-color="#FEB3B1"/>
</linearGradient>
<linearGradient id="paint20_linear" x1="74.4407" y1="-188.543" x2="92.9947" y2="-147.598" gradientUnits="userSpaceOnUse">
<stop stop-color="#FF928E"/>
<stop offset="1" stop-color="#FEB3B1"/>
</linearGradient>
<linearGradient id="paint21_linear" x1="-217.307" y1="-200.923" x2="-183.033" y2="-170.911" gradientUnits="userSpaceOnUse">
<stop stop-color="#FF928E"/>
<stop offset="1" stop-color="#FEB3B1"/>
</linearGradient>
</defs>
</svg>
