<svg width="178" height="385" viewBox="0 0 178 385" fill="none" xmlns="http://www.w3.org/2000/svg">
<path d="M130.324 25.1562C130.324 25.1562 126.578 26.9781 125.888 29.0689C125.336 30.7457 121.194 30.965 120.783 34.2657C120.57 35.9708 119.31 37.3363 117.611 37.5946C113.38 38.242 106.859 40.4388 105.814 47.7794C105.018 53.383 107.875 55.5092 110.877 56.2414C113.079 56.7827 114.545 58.923 114.099 61.1446C113.67 63.2778 114.308 65.74 118.004 67.6893C126.288 72.0582 134.562 57.3417 134.562 57.3417L136.258 31.6478L130.324 25.1562Z" fill="url(#paint0_linear)"/>
<path d="M169.317 11.6071C169.317 11.6071 158.657 40.644 140.495 49.718C140.495 49.718 146.542 59.5739 149.697 60.1717C149.697 60.1717 169.098 35.3588 171.077 15.028L169.317 11.6071Z" fill="url(#paint1_linear)"/>
<path d="M96.2733 186.264L95.7387 190.668C95.636 191.503 94.9775 192.165 94.142 192.26C92.7294 192.423 90.4636 192.585 88.2438 192.352C87.2702 192.249 86.6365 191.262 86.9339 190.332C87.4756 188.63 88.4633 186.08 89.8901 184.58H94.7792C95.682 184.576 96.383 185.369 96.2733 186.264Z" fill="url(#paint2_linear)"/>
<path d="M134.562 134.681L135.387 139.531C135.387 139.531 132.625 167.497 132.133 178.686C132.055 180.441 132.508 182.174 133.432 183.667L138.237 191.464L126.026 184.265L125.782 182.776L127.782 180.03L125.162 148.701C125.01 146.861 125.389 145.015 126.256 143.384L128.78 138.644L134.562 134.681Z" fill="url(#paint3_linear)"/>
<path d="M139.04 192.593H135.142C134.413 192.593 133.726 192.257 133.28 191.68C132.066 190.102 129.549 187.024 128.345 186.947C126.724 186.837 126.932 192.593 126.932 192.593H126.023L124.872 185.44C124.582 183.639 125.477 181.856 127.095 181.014C127.095 181.014 127.467 183.752 129.474 184.962C131.482 186.172 137.645 190.509 137.645 190.509C137.645 190.509 138.399 190.403 139.228 190.551C140.46 190.771 140.286 192.593 139.04 192.593Z" fill="url(#paint4_linear)"/>
<path d="M117.837 136.985C117.837 136.985 101.651 167.666 99.0772 174.671C96.5034 181.675 95.6041 187.52 95.5687 188.075C95.5156 188.938 94.4394 189.77 91.4726 189.77C89.9432 189.77 89.1926 189.158 88.8244 188.563C88.5129 188.057 88.4952 187.424 88.7607 186.89C89.6953 184.997 92.6692 178.944 93.7702 176.199C95.0837 172.923 97.9089 158.072 99.4595 152.907C101.01 147.742 102.763 142.142 109.51 136.985C109.507 136.985 114.141 132.449 117.837 136.985Z" fill="url(#paint5_linear)"/>
<path d="M128.062 86.7111C132.236 69.03 121.661 59.0326 121.661 59.0326C128.334 52.6295 140.495 49.718 140.495 49.718C140.495 49.718 152.1 58.1942 150.723 64.8308C149.916 68.7187 142.566 88.1261 142.566 88.1261C142.566 88.1261 135.769 91.3347 128.062 86.7111Z" fill="url(#paint6_linear)"/>
<path d="M118.804 95.4632C120.503 90.3478 128.062 86.7111 128.062 86.7111C135.769 91.3383 142.566 88.1226 142.566 88.1226C142.566 88.1226 144.089 93.9455 143.037 99.3546C141.986 104.764 135.387 139.532 135.387 139.532C124.989 141.636 108.994 137.412 108.994 137.412C115.618 125.66 117.104 100.579 118.804 95.4632Z" fill="url(#paint7_linear)"/>
<path d="M132.908 38.0333L129.513 53.2699C129.188 54.6107 130.412 54.3913 131.772 54.1366C133.995 53.7192 136.863 52.856 137.819 51.1261C137.918 50.9492 137.964 50.7511 137.992 50.553L139.451 39.9861C139.568 39.1476 139.115 38.334 138.339 37.9908L135.525 36.7456C134.441 36.2645 133.188 36.88 132.908 38.0333Z" fill="url(#paint8_linear)"/>
<path d="M121.661 59.0291C121.661 59.0291 97.9655 75.9673 118.63 93.7686C118.63 93.7686 119.42 94.6601 120.967 95.1236C121.749 95.3571 124.065 97.1082 125.237 98.0209C125.615 98.3145 126.161 98.2155 126.412 97.8086C126.61 97.4902 126.635 97.094 126.476 96.758L123.541 90.56C122.726 89.7994 121.48 89.7464 120.602 90.4327C120.043 90.8713 119.222 90.6874 118.91 90.0506C117.313 86.7995 114.297 77.2373 126.642 66.4333C127.106 66.0265 127.223 65.3544 126.939 64.8096C126.072 63.1433 124.089 59.8356 121.661 59.0291Z" fill="url(#paint9_linear)"/>
<path d="M136.891 23.5254C136.891 23.5254 140.913 25.2234 143.646 31.0287C146.379 36.834 144.34 39.5155 141.773 39.8834C139.21 40.2513 135.373 40.1947 131.319 36.4448C127.262 32.6914 131.666 21.5124 136.891 23.5254Z" fill="url(#paint10_linear)"/>
<path d="M134.045 33.3424C134.045 33.3424 131.011 24.8485 138.548 24.7494L140.322 25.9876C140.322 25.9876 143.087 21.279 138.548 19.0291C134.009 16.7827 128.699 18.6364 126.766 24.7494C124.833 30.8589 124.504 34.9485 127.718 37.8705C130.933 40.7926 132.257 37.4779 132.257 37.4779C132.257 37.4779 130.508 34.7433 131.22 33.2822C131.931 31.8212 133.574 33.5865 133.574 33.5865L134.045 33.3424Z" fill="url(#paint11_linear)"/>
<path d="M133.772 34.2904C133.772 34.2904 132.239 29.9144 130.193 31.6584C128.147 33.4025 131.857 35.6984 133.309 36.4449L133.772 34.2904Z" fill="url(#paint12_linear)"/>
<path d="M170.34 16.8887C170.503 17.4052 168.62 18.1905 167.511 16.0786C167.473 15.0668 166.857 10.7261 167.462 9.90185C170.687 5.50811 176.939 0 176.939 0C177.998 1.0436 177.127 2.06598 177.127 2.06598L174.093 5.22509C174.727 6.37129 175.502 7.33706 175.863 8.72381C176.139 9.77449 175.969 10.8959 175.438 11.8511C174.907 12.8098 174.178 14.055 173.491 15.0314C172.192 16.8745 170.34 16.8887 170.34 16.8887Z" fill="url(#paint13_linear)"/>
<path d="M171.877 14.7308C172.103 13.4608 172.801 9.98683 173.282 9.20148C173.618 8.65668 173.728 8.20033 173.618 7.81119C173.526 7.48218 173.289 7.22747 172.893 7.02583L172.726 6.94092L169.763 9.45265L168.871 11.8547L169.402 12.0493L170.245 9.78873L172.801 7.62369C172.953 7.72628 173.045 7.83949 173.08 7.96684C173.144 8.19325 173.052 8.51163 172.808 8.90785C172.17 9.94438 171.36 14.4407 171.324 14.6318L171.877 14.7308Z" fill="url(#paint14_linear)"/>
<path d="M149.261 383.791C148.39 383.791 147.686 383.087 147.686 382.217V193.919C147.686 193.049 148.39 192.345 149.261 192.345C150.132 192.345 150.837 193.049 150.837 193.919V382.213C150.837 383.084 150.132 383.791 149.261 383.791Z" fill="url(#paint15_linear)"/>
<path d="M106.537 383.791C105.666 383.791 104.961 383.087 104.961 382.217V193.919C104.961 193.049 105.666 192.345 106.537 192.345C107.408 192.345 108.112 193.049 108.112 193.919V382.213C108.116 383.084 107.408 383.791 106.537 383.791Z" fill="url(#paint16_linear)"/>
<path d="M1.57688 384.983C1.37154 384.983 1.16266 384.944 0.960864 384.856C0.160753 384.516 -0.214521 383.59 0.125349 382.79L80.7419 193.3C81.0817 192.501 82.0093 192.126 82.8094 192.465C83.6095 192.805 83.9848 193.732 83.6449 194.531L3.02841 384.025C2.77351 384.626 2.18935 384.983 1.57688 384.983Z" fill="#62D7A4"/>
<path d="M51.3714 384.983C51.1661 384.983 50.9572 384.944 50.7554 384.856C49.9553 384.516 49.58 383.59 49.9199 382.79L130.536 193.3C130.876 192.501 131.804 192.126 132.604 192.465C133.404 192.805 133.779 193.732 133.439 194.531L52.8229 384.021C52.568 384.626 51.9839 384.983 51.3714 384.983Z" fill="#62D7A4"/>
<path d="M151.707 195.653H77.86C76.6315 195.653 75.6367 194.659 75.6367 193.431C75.6367 192.203 76.6315 191.209 77.86 191.209H151.707C152.936 191.209 153.931 192.203 153.931 193.431C153.931 194.659 152.936 195.653 151.707 195.653Z" fill="#62D7A4"/>
<path d="M119.809 224.47H69.866C68.9951 224.47 68.2906 223.766 68.2906 222.896C68.2906 222.026 68.9951 221.322 69.866 221.322H119.809C120.68 221.322 121.385 222.026 121.385 222.896C121.385 223.766 120.68 224.47 119.809 224.47Z" fill="#62D7A4"/>
<path d="M104.487 257.154H54.5435V260.306H104.487V257.154Z" fill="#62D7A4"/>
<path d="M89.6493 292.994H39.7061V296.146H89.6493V292.994Z" fill="#62D7A4"/>
<path d="M74.0931 331.982H24.1499C23.279 331.982 22.5745 331.279 22.5745 330.408C22.5745 329.538 23.279 328.834 24.1499 328.834H74.0931C74.9641 328.834 75.6686 329.538 75.6686 330.408C75.6686 331.275 74.9641 331.982 74.0931 331.982Z" fill="#62D7A4"/>
<path d="M59.0503 367.819H9.10712C8.2362 367.819 7.53168 367.115 7.53168 366.244C7.53168 365.374 8.2362 364.67 9.10712 364.67H59.0503C59.9213 364.67 60.6258 365.374 60.6258 366.244C60.6293 367.115 59.9213 367.819 59.0503 367.819Z" fill="#62D7A4"/>
<defs>
<linearGradient id="paint0_linear" x1="136.913" y1="10.1697" x2="125.813" y2="38.034" gradientUnits="userSpaceOnUse">
<stop stop-color="#09005D"/>
<stop offset="1" stop-color="#1A0F91"/>
</linearGradient>
<linearGradient id="paint1_linear" x1="159.843" y1="26.2647" x2="139.336" y2="72.958" gradientUnits="userSpaceOnUse">
<stop stop-color="#FF928E"/>
<stop offset="1" stop-color="#FEB3B1"/>
</linearGradient>
<linearGradient id="paint2_linear" x1="96.2841" y1="188.523" x2="86.8597" y2="188.523" gradientUnits="userSpaceOnUse">
<stop stop-color="#4042E2"/>
<stop offset="1" stop-color="#4F52FF"/>
</linearGradient>
<linearGradient id="paint3_linear" x1="136.107" y1="225.659" x2="122.565" y2="67.2673" gradientUnits="userSpaceOnUse">
<stop stop-color="#FF928E"/>
<stop offset="1" stop-color="#FEB3B1"/>
</linearGradient>
<linearGradient id="paint4_linear" x1="140.069" y1="186.804" x2="124.82" y2="186.804" gradientUnits="userSpaceOnUse">
<stop stop-color="#4042E2"/>
<stop offset="1" stop-color="#4F52FF"/>
</linearGradient>
<linearGradient id="paint5_linear" x1="108.825" y1="228.016" x2="95.2798" y2="69.5826" gradientUnits="userSpaceOnUse">
<stop stop-color="#FF928E"/>
<stop offset="1" stop-color="#FEB3B1"/>
</linearGradient>
<linearGradient id="paint6_linear" x1="135.772" y1="65.9325" x2="129" y2="128.803" gradientUnits="userSpaceOnUse">
<stop stop-color="#4042E2"/>
<stop offset="1" stop-color="#4F52FF"/>
</linearGradient>
<linearGradient id="paint7_linear" x1="98.4162" y1="69.019" x2="132.287" y2="123.253" gradientUnits="userSpaceOnUse">
<stop stop-color="#09005D"/>
<stop offset="1" stop-color="#1A0F91"/>
</linearGradient>
<linearGradient id="paint8_linear" x1="136.296" y1="35.6596" x2="133.114" y2="56.0018" gradientUnits="userSpaceOnUse">
<stop stop-color="#FF928E"/>
<stop offset="1" stop-color="#FEB3B1"/>
</linearGradient>
<linearGradient id="paint9_linear" x1="127.094" y1="78.6094" x2="110.17" y2="78.6094" gradientUnits="userSpaceOnUse">
<stop stop-color="#FF928E"/>
<stop offset="1" stop-color="#FEB3B1"/>
</linearGradient>
<linearGradient id="paint10_linear" x1="143.287" y1="25.4681" x2="132.676" y2="38.742" gradientUnits="userSpaceOnUse">
<stop stop-color="#FF928E"/>
<stop offset="1" stop-color="#FEB3B1"/>
</linearGradient>
<linearGradient id="paint11_linear" x1="139.244" y1="11.0985" x2="128.145" y2="38.9628" gradientUnits="userSpaceOnUse">
<stop stop-color="#09005D"/>
<stop offset="1" stop-color="#1A0F91"/>
</linearGradient>
<linearGradient id="paint12_linear" x1="140.425" y1="23.1802" x2="129.814" y2="36.4542" gradientUnits="userSpaceOnUse">
<stop stop-color="#FF928E"/>
<stop offset="1" stop-color="#FEB3B1"/>
</linearGradient>
<linearGradient id="paint13_linear" x1="163.9" y1="28.0466" x2="143.393" y2="74.7399" gradientUnits="userSpaceOnUse">
<stop stop-color="#FF928E"/>
<stop offset="1" stop-color="#FEB3B1"/>
</linearGradient>
<linearGradient id="paint14_linear" x1="173.659" y1="10.834" x2="168.868" y2="10.834" gradientUnits="userSpaceOnUse">
<stop stop-color="#FF928E"/>
<stop offset="1" stop-color="#FEB3B1"/>
</linearGradient>
<linearGradient id="paint15_linear" x1="194.771" y1="236.287" x2="-59.7719" y2="526.331" gradientUnits="userSpaceOnUse">
<stop stop-color="#09005D"/>
<stop offset="1" stop-color="#1A0F91"/>
</linearGradient>
<linearGradient id="paint16_linear" x1="170.653" y1="215.121" x2="-83.8896" y2="505.167" gradientUnits="userSpaceOnUse">
<stop stop-color="#09005D"/>
<stop offset="1" stop-color="#1A0F91"/>
</linearGradient>
</defs>
</svg>
